<svg width="14" height="14" viewBox="0 0 14 14" fill="none" xmlns="http://www.w3.org/2000/svg">
<path fill-rule="evenodd" clip-rule="evenodd" d="M0 7.00042C0 6.76838 0.0921771 6.54585 0.256253 6.38177C0.420329 6.2177 0.642864 6.12552 0.874902 6.12552H11.0115L7.25469 2.37044C7.09041 2.20616 6.99811 1.98334 6.99811 1.75101C6.99811 1.51868 7.09041 1.29586 7.25469 1.13158C7.41897 0.967294 7.64179 0.875 7.87412 0.875C8.10645 0.875 8.32927 0.967294 8.49355 1.13158L13.743 6.38099C13.8244 6.46226 13.8891 6.55881 13.9332 6.6651C13.9773 6.77139 14 6.88534 14 7.00042C14 7.1155 13.9773 7.22945 13.9332 7.33574C13.8891 7.44203 13.8244 7.53858 13.743 7.61985L8.49355 12.8693C8.32927 13.0335 8.10645 13.1258 7.87412 13.1258C7.64179 13.1258 7.41897 13.0335 7.25469 12.8693C7.09041 12.705 6.99811 12.4822 6.99811 12.2498C6.99811 12.0175 7.09041 11.7947 7.25469 11.6304L11.0115 7.87532H0.874902C0.642864 7.87532 0.420329 7.78315 0.256253 7.61907C0.0921771 7.455 0 7.23246 0 7.00042Z" fill="#001769"/>
</svg>
