<svg width="20" height="20" viewBox="0 0 20 20" fill="none" xmlns="http://www.w3.org/2000/svg">
<g clip-path="url(#clip0)">
<path d="M11.1721 10.0056L19.7453 1.43242C20.0762 1.11285 20.0854 0.585581 19.7658 0.254693C19.4462 -0.0761956 18.9189 -0.0853707 18.5881 0.234195C18.5811 0.240881 18.5743 0.247714 18.5676 0.254693L9.99432 8.82787L1.42113 0.254644C1.09024 -0.064922 0.562962 -0.0557469 0.243396 0.275141C-0.068362 0.597928 -0.068362 1.10963 0.243396 1.43242L8.81659 10.0056L0.243396 18.5788C-0.081783 18.904 -0.081783 19.4313 0.243396 19.7565C0.568623 20.0816 1.0959 20.0816 1.42113 19.7565L9.99432 11.1833L18.5675 19.7565C18.8984 20.0761 19.4257 20.0669 19.7452 19.736C20.0569 19.4132 20.0569 18.9015 19.7452 18.5788L11.1721 10.0056Z" fill="#00CFA7"/>
</g>
<defs>
<clipPath id="clip0">
<rect width="20" height="20" fill="white"/>
</clipPath>
</defs>
</svg>
