<svg width="375" height="375" viewBox="0 0 375 375" fill="none" xmlns="http://www.w3.org/2000/svg">
<path d="M187.5 31.25C101.406 31.25 31.25 101.406 31.25 187.5C31.25 273.594 101.406 343.75 187.5 343.75C273.594 343.75 343.75 273.594 343.75 187.5C343.75 101.406 273.594 31.25 187.5 31.25ZM171.875 156.25V109.375C171.875 100.781 178.906 93.75 187.5 93.75C196.094 93.75 203.125 100.781 203.125 109.375V156.25H231.094C238.125 156.25 241.562 164.687 236.562 169.531L192.969 213.125C189.844 216.25 185 216.25 181.875 213.125L138.281 169.531C137.202 168.43 136.472 167.033 136.185 165.518C135.897 164.002 136.065 162.436 136.666 161.016C137.268 159.595 138.276 158.385 139.565 157.537C140.853 156.689 142.364 156.241 143.906 156.25H171.875ZM250 265.625H125C116.406 265.625 109.375 258.594 109.375 250C109.375 241.406 116.406 234.375 125 234.375H250C258.594 234.375 265.625 241.406 265.625 250C265.625 258.594 258.594 265.625 250 265.625Z" fill="white"/>
</svg>
