<svg width="16" height="17" viewBox="0 0 16 17" fill="none" xmlns="http://www.w3.org/2000/svg">
<g clip-path="url(#clip0)">
<path fill-rule="evenodd" clip-rule="evenodd" d="M2.52619 14.8158H14.3157C14.539 14.8158 14.7532 14.9045 14.9111 15.0624C15.069 15.2204 15.1578 15.4346 15.1578 15.6579C15.1578 15.8812 15.069 16.0954 14.9111 16.2534C14.7532 16.4113 14.539 16.5 14.3157 16.5H2.52619C2.30285 16.5 2.08865 16.4113 1.93073 16.2534C1.7728 16.0954 1.68408 15.8812 1.68408 15.6579C1.68408 15.4346 1.7728 15.2204 1.93073 15.0624C2.08865 14.9045 2.30285 14.8158 2.52619 14.8158ZM9.26303 9.91053L11.994 7.18042L13.1847 8.37116L8.42092 13.1349L3.65713 8.37116L4.84787 7.18042L7.57882 9.91053V0.5H9.26303V9.91053Z" fill="white"/>
</g>
<defs>
<clipPath id="clip0">
<rect width="16" height="16" fill="white" transform="translate(0 0.5)"/>
</clipPath>
</defs>
</svg>
