<svg width="18" height="18" viewBox="0 0 18 18" fill="none" xmlns="http://www.w3.org/2000/svg">
<path d="M16.2 1.7998H1.8C0.81 1.7998 0.00899999 2.6098 0.00899999 3.5998L0 14.3998C0 15.3898 0.81 16.1998 1.8 16.1998H16.2C17.19 16.1998 18 15.3898 18 14.3998V3.5998C18 2.6098 17.19 1.7998 16.2 1.7998ZM15.84 5.6248L9.477 9.6028C9.189 9.7828 8.811 9.7828 8.523 9.6028L2.16 5.6248C2.06975 5.57414 1.99073 5.5057 1.9277 5.42361C1.86467 5.34153 1.81896 5.2475 1.79332 5.14724C1.76768 5.04697 1.76265 4.94255 1.77854 4.84028C1.79443 4.73802 1.8309 4.64004 1.88575 4.55228C1.9406 4.46451 2.01269 4.38879 2.09765 4.3297C2.18262 4.27061 2.27868 4.22936 2.38005 4.20847C2.48141 4.18758 2.58595 4.18747 2.68736 4.20816C2.78876 4.22884 2.88492 4.26988 2.97 4.3288L9 8.0998L15.03 4.3288C15.1151 4.26988 15.2112 4.22884 15.3126 4.20816C15.414 4.18747 15.5186 4.18758 15.62 4.20847C15.7213 4.22936 15.8174 4.27061 15.9023 4.3297C15.9873 4.38879 16.0594 4.46451 16.1142 4.55228C16.1691 4.64004 16.2056 4.73802 16.2215 4.84028C16.2373 4.94255 16.2323 5.04697 16.2067 5.14724C16.181 5.2475 16.1353 5.34153 16.0723 5.42361C16.0093 5.5057 15.9302 5.57414 15.84 5.6248Z" fill="#00CFA7"/>
</svg>
