<svg width="16" height="16" viewBox="0 0 16 16" fill="none" xmlns="http://www.w3.org/2000/svg">
<path d="M8.00006 5.35603C6.54441 5.35603 5.35649 6.54395 5.35649 7.9996C5.35649 9.45525 6.54441 10.6432 8.00006 10.6432C9.4557 10.6432 10.6436 9.45525 10.6436 7.9996C10.6436 6.54395 9.4557 5.35603 8.00006 5.35603ZM15.9288 7.9996C15.9288 6.90489 15.9387 5.82009 15.8772 4.72736C15.8157 3.45813 15.5262 2.33169 14.5981 1.40356C13.668 0.473456 12.5435 0.185896 11.2743 0.124418C10.1796 0.0629396 9.09477 0.0728555 8.00204 0.0728555C6.90733 0.0728555 5.82253 0.0629396 4.7298 0.124418C3.46057 0.185896 2.33413 0.475439 1.40601 1.40356C0.475898 2.33367 0.188338 3.45813 0.126859 4.72736C0.065381 5.82207 0.0752969 6.90687 0.0752969 7.9996C0.0752969 9.09233 0.065381 10.1791 0.126859 11.2718C0.188338 12.5411 0.477881 13.6675 1.40601 14.5956C2.33611 15.5257 3.46057 15.8133 4.7298 15.8748C5.82451 15.9363 6.90931 15.9263 8.00204 15.9263C9.09675 15.9263 10.1815 15.9363 11.2743 15.8748C12.5435 15.8133 13.6699 15.5238 14.5981 14.5956C15.5282 13.6655 15.8157 12.5411 15.8772 11.2718C15.9407 10.1791 15.9288 9.09431 15.9288 7.9996ZM8.00006 12.0671C5.74915 12.0671 3.93257 10.2505 3.93257 7.9996C3.93257 5.7487 5.74915 3.93211 8.00006 3.93211C10.251 3.93211 12.0675 5.7487 12.0675 7.9996C12.0675 10.2505 10.251 12.0671 8.00006 12.0671ZM12.2341 4.71546C11.7086 4.71546 11.2842 4.29106 11.2842 3.76552C11.2842 3.23998 11.7086 2.81558 12.2341 2.81558C12.7597 2.81558 13.1841 3.23998 13.1841 3.76552C13.1842 3.89032 13.1598 4.01391 13.1121 4.12923C13.0644 4.24456 12.9944 4.34934 12.9062 4.43758C12.8179 4.52582 12.7132 4.59579 12.5978 4.64347C12.4825 4.69116 12.3589 4.71562 12.2341 4.71546Z" fill="white"/>
</svg>
