<svg width="36" height="37" viewBox="0 0 36 37" fill="none" xmlns="http://www.w3.org/2000/svg">
<g clip-path="url(#clip0)">
<path d="M35.9379 1.00564C35.8118 0.699662 35.5124 0.5 35.1819 0.5C3.42824 0.5 0 13.6597 0 19.3182C0 21.3538 0.451637 23.2553 1.34348 24.9685C1.48094 25.2336 1.75255 25.4021 2.05039 25.4087C2.33182 25.4005 2.62805 25.2599 2.77694 24.9997C4.9206 21.2949 10.9915 12.1509 21.0175 7.29258C21.4283 7.09621 21.9192 7.26473 22.1139 7.66897C22.3102 8.07642 22.14 8.56733 21.7342 8.76369C20.9782 9.13026 20.2517 9.52951 19.5399 9.94349C19.2683 10.1022 19.0048 10.2708 18.7381 10.436C18.3372 10.6848 17.9412 10.9383 17.555 11.2002C17.1705 11.4588 16.7908 11.7239 16.4177 11.9955C16.3015 12.0806 16.1903 12.1673 16.0757 12.2541C6.09709 19.6897 0 31.5516 0 35.6819C0 36.1335 0.366571 36.5001 0.818208 36.5001C1.26984 36.5001 1.63642 36.1335 1.63642 35.6819C1.63642 34.3629 2.53478 31.6892 4.23494 28.4999C6.7026 30.5175 10.0228 31.591 13.9092 31.591C24.4162 31.591 26.6172 21.5928 27.7986 16.2206C29.3891 8.99112 32.8893 4.76769 35.7595 1.89587C35.9952 1.66184 36.0639 1.31161 35.9379 1.00564Z" fill="#00E5B9"/>
</g>
<defs>
<clipPath id="clip0">
<rect width="36" height="36" fill="white" transform="translate(0 0.5)"/>
</clipPath>
</defs>
</svg>
