<svg width="16" height="16" viewBox="0 0 16 16" fill="none" xmlns="http://www.w3.org/2000/svg">
<g clip-path="url(#clip0)">
<path d="M3.63164 15.5906V5.34905H0.201867V15.5906H3.63164ZM1.9172 3.9499C3.11322 3.9499 3.85769 3.16346 3.85769 2.18068C3.83541 1.17574 3.11327 0.411133 1.9399 0.411133C0.766706 0.411133 -0.000488281 1.17575 -0.000488281 2.18068C-0.000488281 3.16351 0.743795 3.9499 1.89481 3.9499H1.91709H1.9172ZM5.53001 15.5906H8.95979V9.87123C8.95979 9.56514 8.98208 9.25936 9.07265 9.04055C9.32059 8.42898 9.88493 7.79557 10.8324 7.79557C12.0735 7.79557 12.57 8.73476 12.57 10.1115V15.5906H15.9995V9.71813C15.9995 6.57232 14.3075 5.10861 12.0509 5.10861C10.2007 5.10861 9.38829 6.13507 8.93697 6.8342H8.95987V5.34884H5.53009C5.5751 6.30985 5.53009 15.5904 5.53009 15.5904L5.53001 15.5906Z" fill="white"/>
</g>
<defs>
<clipPath id="clip0">
<rect width="16" height="16" fill="white"/>
</clipPath>
</defs>
</svg>
