<svg width="80" height="80" fill="none" xmlns="http://www.w3.org/2000/svg"><path d="M55.972 11.836h-3.355a13.85 13.85 0 00-1.12-1.944l1.676-2.904a1.996 1.996 0 00-.73-2.728L45.525.267A1.997 1.997 0 0042.8.998l-1.674 2.9a13.163 13.163 0 00-2.25 0l-1.674-2.9a1.998 1.998 0 00-2.727-.73L27.558 4.26a1.996 1.996 0 00-.731 2.727l1.677 2.904c-.425.616-.8 1.265-1.12 1.944h-3.356a1.997 1.997 0 00-1.997 1.997v7.986c0 1.102.894 1.996 1.997 1.996h3.355c.322.679.696 1.328 1.12 1.944l-1.676 2.904a1.996 1.996 0 00.73 2.728l6.917 3.993a1.997 1.997 0 002.727-.731l1.674-2.9c.755.065 1.495.065 2.25 0l1.674 2.9a1.998 1.998 0 002.727.73l6.916-3.993a1.996 1.996 0 00.731-2.727l-1.676-2.904c.425-.616.799-1.265 1.12-1.944h3.355a1.997 1.997 0 001.997-1.997v-7.986a1.997 1.997 0 00-1.997-1.996zM40 23.685a5.866 5.866 0 01-5.86-5.86A5.866 5.866 0 0140 11.967a5.866 5.866 0 015.86 5.86A5.866 5.866 0 0140 23.684zm-27.5 1.612V20.17h4.844v-4.69h-7.188a2.344 2.344 0 00-2.344 2.344v7.473A10.086 10.086 0 002.976 28 10.09 10.09 0 000 35.18a10.09 10.09 0 002.975 7.181 2.344 2.344 0 003.314-3.314 5.475 5.475 0 010-7.734 5.433 5.433 0 013.867-1.602c1.461 0 2.834.57 3.867 1.602a5.475 5.475 0 010 7.734 2.344 2.344 0 103.315 3.314 10.09 10.09 0 002.974-7.181 10.09 10.09 0 00-2.974-7.182 10.087 10.087 0 00-4.838-2.701zM77.025 28a10.088 10.088 0 00-4.838-2.703v-7.472a2.344 2.344 0 00-2.343-2.344h-7.188v4.688H67.5v5.128A10.086 10.086 0 0062.662 28a10.09 10.09 0 00-2.974 7.181 10.09 10.09 0 002.974 7.182 2.344 2.344 0 003.315-3.315 5.475 5.475 0 010-7.734 5.434 5.434 0 013.867-1.602c1.46 0 2.834.57 3.867 1.602a5.475 5.475 0 010 7.734 2.344 2.344 0 103.314 3.315A10.09 10.09 0 0080 35.18 10.09 10.09 0 0077.025 28zM6.406 80a6.25 6.25 0 100-12.5 6.25 6.25 0 000 12.5zM40 80a6.25 6.25 0 100-12.5A6.25 6.25 0 0040 80zm8.968-12.5a10.874 10.874 0 011.97 6.25c0 2.323-.73 4.477-1.97 6.25h15.658a10.874 10.874 0 01-1.97-6.25c0-2.323.73-4.477 1.97-6.25H48.968zm-33.594 0a10.874 10.874 0 011.97 6.25c0 2.323-.73 4.477-1.97 6.25h15.658a10.874 10.874 0 01-1.97-6.25c0-2.323.73-4.477 1.97-6.25H15.374zM73.594 80a6.25 6.25 0 100-12.5 6.25 6.25 0 000 12.5zM45.86 48.75H34.14a2.344 2.344 0 00-2.343 2.344v11.718h16.406V51.094a2.344 2.344 0 00-2.344-2.344zm-23.438 0H10.703a2.344 2.344 0 00-2.344 2.344v11.718h16.407V51.094a2.344 2.344 0 00-2.344-2.344zm35.156 0a2.344 2.344 0 00-2.344 2.344v11.718h16.407V51.094a2.344 2.344 0 00-2.344-2.344H57.578z" fill="#00E5B9"/></svg>