<svg width="80" height="80" fill="none" xmlns="http://www.w3.org/2000/svg"><path d="M79.182 24.314l-7.965-6.827a2.32 2.32 0 00-2.505-.35 2.32 2.32 0 00-1.364 2.13v2.14H58.75a9.375 9.375 0 00-9.375 9.374v3.032c.07.136.136.273.197.413a7.026 7.026 0 012.581-.486c1.879 0 3.645.731 4.973 2.06l1.624 1.624v-6.643h8.597v2.14a2.32 2.32 0 001.365 2.129 2.326 2.326 0 002.505-.35l7.964-6.827a2.34 2.34 0 000-3.559zM27.847 33.74c.897 0 1.77.167 2.58.486a7.82 7.82 0 01.198-.413v-3.032a9.375 9.375 0 00-9.375-9.375h-8.598v-2.14a2.32 2.32 0 00-1.364-2.129 2.32 2.32 0 00-2.504.35L.818 24.314a2.34 2.34 0 000 3.56L8.783 34.7a2.327 2.327 0 002.505.35 2.32 2.32 0 001.364-2.13v-2.139h8.598v6.643l1.625-1.625a6.985 6.985 0 014.972-2.06zM43.125 30c.537 0 1.06.06 1.563.175V12.652h2.14a2.32 2.32 0 002.128-1.364 2.32 2.32 0 00-.35-2.504L41.78.818a2.341 2.341 0 00-3.56 0l-6.827 7.965a2.32 2.32 0 00-.35 2.505 2.32 2.32 0 002.13 1.364h2.14v17.523A7.028 7.028 0 0136.875 30h6.25zm17.188 21.875h-.745a19.988 19.988 0 00-1.865-4.5l.527-.527a2.345 2.345 0 000-3.315l-4.42-4.42a2.343 2.343 0 00-3.314 0l-.527.528a19.978 19.978 0 00-4.5-1.865v-.745a2.344 2.344 0 00-2.344-2.343h-6.25a2.344 2.344 0 00-2.344 2.343v.745a19.984 19.984 0 00-4.5 1.865l-.527-.527a2.344 2.344 0 00-3.315 0l-4.419 4.42a2.344 2.344 0 000 3.313l.528.528a19.983 19.983 0 00-1.866 4.5h-.744a2.344 2.344 0 00-2.344 2.344v6.25a2.344 2.344 0 002.343 2.343h.745a19.99 19.99 0 001.865 4.5l-.527.528a2.344 2.344 0 000 3.314l4.42 4.42a2.344 2.344 0 003.314 0l.527-.528a19.965 19.965 0 004.5 1.865v.745A2.344 2.344 0 0036.875 80h6.25a2.344 2.344 0 002.344-2.344v-.744a19.997 19.997 0 004.5-1.866l.527.528a2.345 2.345 0 003.314 0l4.42-4.42a2.343 2.343 0 000-3.314l-.528-.528a19.975 19.975 0 001.866-4.5h.745a2.344 2.344 0 002.343-2.343v-6.25a2.344 2.344 0 00-2.343-2.344zM40 65.156a7.813 7.813 0 010-15.625h.001a7.813 7.813 0 010 15.625z" fill="#00E5B9"/></svg>