<svg width="80" height="80" fill="none" xmlns="http://www.w3.org/2000/svg"><g clip-path="url(#clip0)" fill="#00E5B9"><path d="M77.655 75.312h-2.5V29.063a2.344 2.344 0 00-2.344-2.344h-9.374a2.344 2.344 0 00-2.344 2.344v46.25h-4.688V44.687a2.344 2.344 0 00-2.343-2.344h-9.375a2.344 2.344 0 00-2.344 2.344v30.624h-4.687v-22.03a2.344 2.344 0 00-2.344-2.344h-9.375a2.344 2.344 0 00-2.344 2.343v22.031h-4.687V58.906a2.344 2.344 0 00-2.344-2.343H7.187a2.344 2.344 0 00-2.343 2.343v16.406h-2.5a2.344 2.344 0 000 4.688h75.311a2.344 2.344 0 000-4.688z"/><path d="M2.344 50.36c14.627 0 30.49-5.253 44.666-14.792C58.112 28.097 67.367 18.553 73.115 8.78l2.276 8.495c.281 1.047 1.636 1.951 2.87 1.657 1.26-.3 1.993-1.62 1.658-2.87L76.081 1.737A2.343 2.343 0 0073.211.08L58.888 3.919A2.344 2.344 0 1060.1 8.446l9.227-2.472c-5.363 9.32-14.227 18.499-24.935 25.705-13.41 9.024-28.344 13.994-42.05 13.994a2.344 2.344 0 000 4.687z"/></g><defs><clipPath id="clip0"><path fill="#fff" d="M0 0h80v80H0z"/></clipPath></defs></svg>