<svg width="80" height="80" fill="none" xmlns="http://www.w3.org/2000/svg"><g clip-path="url(#clip0)"><path d="M51.126 36.34c-3.14-1.734-6.477-3.056-9.782-4.427-1.916-.794-3.75-1.719-5.37-3.008-3.188-2.544-2.577-6.675 1.157-8.31 1.058-.463 2.165-.612 3.288-.678 4.33-.231 8.443.562 12.36 2.445 1.949.942 2.593.645 3.254-1.387.694-2.148 1.272-4.33 1.917-6.494.43-1.454-.1-2.412-1.47-3.024-2.512-1.107-5.09-1.9-7.8-2.33-3.535-.544-3.535-.56-3.552-4.113-.016-5.007-.016-5.007-5.04-5.007-.726 0-1.453-.016-2.18 0-2.346.066-2.743.48-2.809 2.842-.033 1.058 0 2.115-.016 3.19-.017 3.138-.034 3.089-3.04 4.18-7.27 2.643-11.765 7.6-12.244 15.53-.43 7.023 3.239 11.765 9.005 15.218 3.552 2.131 7.485 3.387 11.252 5.056 1.47.644 2.875 1.388 4.097 2.412 3.619 2.99 2.958 7.964-1.338 9.848-2.297 1.008-4.725 1.255-7.22.941-3.85-.479-7.535-1.486-11.004-3.287-2.033-1.058-2.628-.777-3.322 1.42-.594 1.9-1.123 3.817-1.652 5.734-.71 2.577-.446 3.189 2.016 4.395 3.14 1.52 6.493 2.296 9.914 2.842 2.676.43 2.759.545 2.792 3.32.017 1.257.017 2.529.033 3.785.017 1.586.777 2.51 2.412 2.544 1.85.033 3.718.033 5.568-.017 1.52-.033 2.297-.859 2.297-2.395 0-1.719.083-3.454.017-5.172-.083-1.751.677-2.644 2.362-3.106 3.883-1.058 7.188-3.14 9.732-6.246 7.072-8.591 4.379-21.165-5.634-26.7z" fill="#00E5B9"/></g><defs><clipPath id="clip0"><path fill="#fff" d="M0 0h80v80H0z"/></clipPath></defs></svg>