<svg width="313" height="313" fill="none" xmlns="http://www.w3.org/2000/svg"><g clip-path="url(#clip0)"><path d="M156.5.25C70.406.25.25 70.406.25 156.5S70.406 312.75 156.5 312.75s156.25-70.156 156.25-156.25S242.594.25 156.5.25zm-15.625 125V78.375c0-8.594 7.031-15.625 15.625-15.625 8.594 0 15.625 7.031 15.625 15.625v46.875h27.969c7.031 0 10.468 8.437 5.468 13.281l-43.593 43.594c-3.125 3.125-7.969 3.125-11.094 0l-43.594-43.594a7.813 7.813 0 015.625-13.281h27.969zM219 234.625H94c-8.594 0-15.625-7.031-15.625-15.625 0-8.594 7.031-15.625 15.625-15.625h125c8.594 0 15.625 7.031 15.625 15.625 0 8.594-7.031 15.625-15.625 15.625z" fill="#fff"/></g><defs><clipPath id="clip0"><path fill="#fff" d="M0 0h313v313H0z"/></clipPath></defs></svg>