<svg width="80" height="80" fill="none" xmlns="http://www.w3.org/2000/svg"><path d="M78.187 10.857c-9.681 0-23.36.81-30.349 7.796-3.026 3.026-4.538 7.96-4.145 13.544a1.819 1.819 0 003.197 1.05c3.887-4.574 8.719-8.24 14.372-10.895a2.056 2.056 0 011.562-.066c.454.164.81.472.995.868.385.814.262 1.886-1.017 2.489-.073.036-.138.084-.21.116-.026.011-.055.008-.077.018-13.929 6.547-20.777 17.969-23.886 29.714-2.267-14.706-7.055-23.363-11.578-28.678-3.274-4.243-6.492-6.492-8.352-7.764-.346-.236-1.388-.948-1.82-1.38a1.818 1.818 0 010-2.569c.708-.704 1.863-.704 2.651.08.193.171.502.389.894.65l.323.219c2.63 1.801 7.528 5.147 11.873 12.351.389.643 1.14.989 1.87.85a1.815 1.815 0 001.468-1.438c.949-4.843.524-12.029-3.796-16.348C25.172 4.48 11.495 3.67 1.817 3.67A1.817 1.817 0 000 5.487c0 9.682.81 23.36 7.796 30.35 2.914 2.913 7.408 4.221 11.872 4.221 3.644 0 7.215-.912 9.95-2.492 3.732 7.73 6.71 19.28 6.71 36.947a1.817 1.817 0 003.634 0c0-9.857 1.69-21.685 7.97-31.422 2.518 2.46 6.852 4.019 11.655 4.164.24.007.476.01.712.01 4.879 0 9.19-1.529 11.905-4.246C79.194 36.029 80 22.35 80 12.669a1.806 1.806 0 00-1.813-1.812z" fill="#00E5B9"/></svg>