<svg width="80" height="80" fill="none" xmlns="http://www.w3.org/2000/svg"><path d="M39.477 29.373c.752.295 1.49-.427 1.241-1.196-1.712-5.276-7.911-7.244-13.674-2.563-3.032 2.462-4.171 2.986-4.2 2.999 1.999 1.998 4.282 8.703 9.264 9.444 5.49.996 10.347-4.404 6.373-6.876a16.97 16.97 0 00-8.99-2.568c3.458-.78 6.91-.446 9.986.76zm24.853-3.76c-9.947-8.08-16.292 4.663-12.348 3.4a16.958 16.958 0 018.934-.4c-5.204 0-10 2.384-13.2 6.266.264-6.1.66-9.919 1.121-12.76 2.659-.09 6.202-2.237 8.147-5.993 3.355-6.003 1.8-12.158 1.298-16.042-2.62 2.552-14.07-.438-18.608 7.34-2.005 3.435-1.423 7.616.687 10.675.667.969 2.264.504 2.309-.671.198-5.114 2.743-8.977 7.487-11.116a23.078 23.078 0 00-4.249 9.038c-1.122 4.972-2.294 8.233-2.725 24.08a2.84 2.84 0 002.866 2.917c1.164-.014 2.16-.753 2.608-1.827.68-1.634 1.789-3.325 3.592-4.875 1.713 1.894 4.32 2.901 7.018 2.412 4.96-.738 7.276-7.458 9.264-9.445-.03-.012-1.169-.536-4.2-2.999zm14.625 19.746c-3.11-2.11-6.495-.607-8.05.29L51.399 59.928l-11.421.002-2.856-2.855h10.49c3.155 0 6.688-2.055 6.688-5.712 0-3.883-3.533-5.712-6.688-5.712H43.68c-2.92 0-6.333.26-8.739-1.028-2.286-1.163-4.918-1.825-7.728-1.825-4.719 0-8.942 1.88-11.836 4.847L0 62.783l17.133 17.132 5.71-8.566h26.988a11.76 11.76 0 007.808-2.967l21.511-19.11c1.196-1.062 1.129-3.015-.195-3.913z" fill="#00E5B9"/></svg>