<svg width="80" height="80" fill="none" xmlns="http://www.w3.org/2000/svg"><g clip-path="url(#clip0)" fill="#00E5B9"><path d="M2.234 45.782l5.22.855a32.151 32.151 0 004.652 11.209L9.014 62.16a2.44 2.44 0 00.027 2.926 35.67 35.67 0 002.482 2.732 42.04 42.04 0 002.725 2.483c.862.659 2.056.67 2.93.027l4.311-3.093a32.092 32.092 0 0011.2 4.654l.855 5.224a2.416 2.416 0 002.088 2.034c.743.084 1.492.136 2.257.174a1.365 1.365 0 001.431-1.353V67.102a1.364 1.364 0 00-1.318-1.356c-13.702-.71-24.449-12.028-24.449-25.75 0-13.72 10.747-25.038 24.45-25.749a1.364 1.364 0 001.318-1.356V2.034A1.365 1.365 0 0037.893.678a38.56 38.56 0 00-2.26.16 2.448 2.448 0 00-2.09 2.05l-.853 5.225a32.123 32.123 0 00-11.2 4.655l-4.313-3.094a2.44 2.44 0 00-2.929.027c-.95.78-1.86 1.609-2.725 2.482a31.3 31.3 0 00-2.482 2.733 2.44 2.44 0 00-.027 2.931l3.092 4.315a32.152 32.152 0 00-4.651 11.205l-5.22.854A2.418 2.418 0 00.2 36.31a33.577 33.577 0 000 7.322 2.452 2.452 0 002.034 2.149z"/><path d="M38.024 19.702c-10.713.679-19.054 9.565-19.054 20.3 0 10.733 8.341 19.62 19.054 20.298a1.244 1.244 0 001.296-1.255V20.957a1.245 1.245 0 00-1.296-1.256zm10.788 1.315h-6.78v2.712h6.78a4.08 4.08 0 004.068-4.067v-8.386a4.068 4.068 0 10-2.712 0v8.386c0 .748-.607 1.355-1.356 1.355zm-6.78 8.136h13.56a1.356 1.356 0 100-2.712h-13.56v2.712zm0 29.832h6.78c.749 0 1.356.607 1.356 1.356v8.385a4.068 4.068 0 102.712 0v-8.385a4.08 4.08 0 00-4.068-4.068h-6.78v2.712zm20.34-13.56h-20.34v2.712h20.34c.748 0 1.356.607 1.356 1.356v7.03a4.068 4.068 0 102.712 0v-7.03a4.08 4.08 0 00-4.068-4.068zm13.559-9.492a4.068 4.068 0 00-3.818 2.712H42.032v2.712h30.08a4.061 4.061 0 103.82-5.424z"/><path d="M56.948 52.205c0-.749-.607-1.356-1.356-1.356h-13.56v2.712h13.56c.749 0 1.356-.607 1.356-1.356zM66.44 30.51v-7.03a4.068 4.068 0 10-2.713 0v7.03c0 .748-.607 1.355-1.356 1.355h-20.34v2.712h20.34a4.08 4.08 0 004.068-4.067z"/></g><defs><clipPath id="clip0"><path fill="#fff" d="M0 0h80v80H0z"/></clipPath></defs></svg>