<svg width="357" height="357" fill="none" xmlns="http://www.w3.org/2000/svg"><path d="M178.5 5.578C82.969 5.578 5.578 82.98 5.578 178.5S82.98 351.422 178.5 351.422c95.531 0 172.922-77.402 172.922-172.922S274.02 5.578 178.5 5.578zm84.933 118.468l-28.382 133.741c-2.097 9.483-7.742 11.781-15.619 7.319l-43.23-31.862-20.851 20.081c-2.298 2.298-4.251 4.25-8.713 4.25l3.068-44 80.113-72.382c3.492-3.067-.77-4.808-5.378-1.74l-99.011 62.33-42.673-13.32c-9.27-2.923-9.483-9.271 1.952-13.734l166.719-64.293c7.743-2.789 14.504 1.885 11.993 13.599l.012.011z" fill="#fff"/></svg>