<svg width="2225" height="2163" fill="none" xmlns="http://www.w3.org/2000/svg"><path d="M917.774 853.54l-22.373 38.746-9.127-15.807c-8.497-14.718-27.336-20.223-42.108-11.806l-.377.218a103.152 103.152 0 00-24.39 19.56l22.393 38.787-18.226.012c-16.989.024-31.174 13.525-31.264 30.517-.056 10.655 1.575 21.231 4.767 31.408l44.676-.02-9.124 15.775c-8.533 14.77-3.807 33.9 10.959 42.43 9.148 5.28 19.059 9.18 29.395 11.48l22.374-38.74 9.126 15.8c8.498 14.72 27.336 20.23 42.108 11.81l.336-.19a103.363 103.363 0 0024.432-19.59l-22.394-38.784 18.227-.012c16.946-.001 31.174-13.526 31.263-30.518.057-10.655-1.533-21.254-4.766-31.408l-44.718.045 9.123-15.778c8.534-14.767 3.808-33.899-10.917-42.449-9.172-5.327-19.082-9.222-29.395-11.486zM720.94 915.411l-22.374 38.747-9.127-15.808c-8.497-14.718-27.336-20.222-42.107-11.806l-.378.218a103.177 103.177 0 00-24.39 19.561l22.393 38.786-18.25-.03c-16.989.025-31.174 13.526-31.264 30.521-.056 10.65 1.533 21.25 4.766 31.4h44.743l-9.124 15.78c-8.533 14.77-3.807 33.9 10.917 42.45a103.195 103.195 0 0029.395 11.49l22.374-38.75 9.126 15.81c8.498 14.71 27.336 20.22 42.15 11.78l.336-.2a102.981 102.981 0 0024.432-19.58l-22.394-38.79 18.227-.01c16.988-.02 31.174-13.52 31.287-30.47a103.177 103.177 0 00-4.724-31.437l-44.742.003 9.123-15.778c8.492-14.743 3.766-33.874-10.959-42.425-9.172-5.327-19.1-9.155-29.436-11.462zM523.46 976.65l-22.374 38.75-9.127-15.811c-8.497-14.718-27.335-20.223-42.107-11.806l-.378.218a103.193 103.193 0 00-24.39 19.559l22.393 38.79-18.25-.03c-16.989.02-31.174 13.52-31.264 30.52-.056 10.65 1.533 21.25 4.766 31.4h44.743l-9.124 15.78c-8.533 14.77-3.807 33.9 10.917 42.45a102.879 102.879 0 0029.395 11.48l22.374-38.74 9.126 15.81c8.498 14.71 27.336 20.22 42.15 11.78l.336-.2a102.981 102.981 0 0024.432-19.58l-22.394-38.79 18.227-.01c16.988-.02 31.174-13.53 31.287-30.48a103.188 103.188 0 00-4.724-31.43h-44.742l9.123-15.77c8.492-14.75 3.766-33.877-10.959-42.428-9.172-5.327-19.1-9.155-29.436-11.462z" fill="#fff"/><path d="M371.721 837.829l-22.374 38.747-9.126-15.808c-8.498-14.718-27.336-20.223-42.108-11.806l-.378.218a103.172 103.172 0 00-24.39 19.561l22.393 38.786-18.25-.03c-16.989.024-31.174 13.526-31.263 30.517-.057 10.656 1.532 21.255 4.766 31.408l44.742-.002-9.123 15.778c-8.534 14.767-3.808 33.902 10.916 42.452a103.171 103.171 0 0029.395 11.48l22.374-38.74 9.127 15.8c8.497 14.72 27.335 20.23 42.149 11.79l.336-.2a102.961 102.961 0 0024.432-19.58l-22.393-38.789 18.226-.012c16.988-.025 31.174-13.526 31.288-30.476a103.2 103.2 0 00-4.725-31.432l-44.742.002 9.123-15.778c8.492-14.742 3.766-33.874-10.958-42.424-9.172-5.327-19.101-9.156-29.437-11.462zm939.539-108.152l-22.37 38.747-9.13-15.808c-8.49-14.718-27.33-20.223-42.1-11.806l-.38.218a103.172 103.172 0 00-24.39 19.561l22.39 38.786-18.22.012c-16.95 0-31.18 13.526-31.27 30.517-.05 10.655 1.53 21.255 4.77 31.408l44.74-.002-9.12 15.778c-8.54 14.766-3.84 33.856 10.91 42.449a103.262 103.262 0 0029.4 11.486l22.37-38.747 9.13 15.808c8.5 14.718 27.33 20.222 42.15 11.781l.33-.193a103.149 103.149 0 0024.44-19.585l-22.4-38.786 18.23-.013c16.95 0 31.17-13.525 31.26-30.517.06-10.655-1.53-21.255-4.74-31.366l-44.74.003 9.12-15.779c8.53-14.766 3.81-33.898-10.92-42.449a103.71 103.71 0 00-29.46-11.503z" fill="#fff"/><path d="M1507.88 667.709l-22.38 38.747-9.12-15.808c-8.5-14.718-27.34-20.223-42.11-11.806l-.38.218a103.172 103.172 0 00-24.39 19.561l22.39 38.786-18.22.012c-16.95 0-31.18 13.526-31.27 30.517-.05 10.655 1.54 21.255 4.77 31.408l44.74-.002-9.12 15.778c-8.53 14.766-3.83 33.856 10.92 42.449a103.087 103.087 0 0029.39 11.486l22.37-38.747 9.13 15.808c8.5 14.718 27.34 20.222 42.15 11.781l.34-.193a103.323 103.323 0 0024.43-19.585l-22.39-38.786 18.22-.013c16.95 0 31.18-13.525 31.27-30.517.05-10.655-1.54-21.255-4.75-31.366l-44.74.002 9.12-15.778c8.54-14.766 3.81-33.898-10.91-42.449a103.941 103.941 0 00-29.46-11.503zm45.21-201.655l-22.37 38.747-9.13-15.808c-8.5-14.718-27.34-20.223-42.11-11.806l-.38.218a103.172 103.172 0 00-24.39 19.561l22.4 38.786-18.23.012c-16.95 0-31.17 13.526-31.26 30.518a101.7 101.7 0 004.76 31.408l44.75-.003-9.13 15.778c-8.53 14.767-3.83 33.856 10.92 42.449a103.201 103.201 0 0029.39 11.486l22.38-38.747 9.12 15.808c8.5 14.718 27.34 20.223 42.15 11.782l.34-.194a103.298 103.298 0 0024.43-19.585l-22.39-38.786 18.22-.012c16.95-.001 31.18-13.526 31.27-30.518.05-10.655-1.54-21.254-4.74-31.366l-44.75.003 9.13-15.778c8.53-14.767 3.8-33.899-10.92-42.449a103.828 103.828 0 00-29.46-11.504zm-438.62 325.471l-22.37 38.746-9.13-15.808c-8.5-14.717-27.33-20.222-42.11-11.805l-.37.218a104.237 104.237 0 00-24.42 19.518l22.39 38.787-18.24.078c-16.95 0-31.173 13.526-31.263 30.517a103.236 103.236 0 004.724 31.433l44.739-.003-9.1 15.712c-8.54 14.767-3.81 33.898 10.91 42.449 9.15 5.285 19.06 9.179 29.44 11.462l22.38-38.747 9.12 15.808c8.5 14.718 27.34 20.222 42.15 11.781l.34-.194a103.294 103.294 0 0024.43-19.584l-22.37-38.745 18.23-.012c16.94 0 31.17-13.525 31.26-30.517.06-10.655-1.53-21.255-4.77-31.408l-44.74.002 9.12-15.778c8.54-14.766 3.81-33.898-10.95-42.424a103.232 103.232 0 00-29.4-11.486zm44.8-201.305l-22.37 38.747-9.13-15.808c-8.5-14.718-27.34-20.223-42.11-11.806l-.38.218a104.368 104.368 0 00-24.41 19.519l22.39 38.786-18.24.078c-16.95 0-31.17 13.526-31.26 30.518a103.133 103.133 0 004.72 31.432l44.74-.003-9.1 15.712c-8.54 14.767-3.81 33.899 10.91 42.449 9.15 5.285 19.06 9.18 29.44 11.462l22.37-38.747 9.13 15.808c8.5 14.718 27.34 20.223 42.15 11.782l.34-.194a103.298 103.298 0 0024.43-19.585l-22.37-38.744 18.23-.012c16.94-.001 31.17-13.526 31.26-30.518.06-10.655-1.53-21.254-4.77-31.408l-44.74.003 9.12-15.778c8.54-14.767 3.81-33.899-10.95-42.425a103.262 103.262 0 00-29.4-11.486z" fill="#fff"/><path d="M1007.4 450.69l-22.371 38.747-9.127-15.808c-8.497-14.718-27.336-20.222-42.108-11.805l-.377.217a104.44 104.44 0 00-24.414 19.519l22.393 38.786-18.244.079c-16.947 0-31.174 13.525-31.264 30.517a103.195 103.195 0 004.725 31.432l44.742-.002-9.106 15.712c-8.533 14.766-3.807 33.898 10.917 42.449 9.148 5.285 19.059 9.179 29.437 11.461l22.373-38.746 9.127 15.808c8.497 14.717 27.337 20.222 42.147 11.781l.34-.194a103.273 103.273 0 0024.43-19.585l-22.37-38.744 18.23-.012c16.94 0 31.17-13.526 31.26-30.517.06-10.656-1.53-21.255-4.77-31.408l-44.74.002 9.13-15.778c8.53-14.766 3.8-33.898-10.96-42.425a103.147 103.147 0 00-29.4-11.486zm-44.79 201.413l-22.374 38.746-9.126-15.808c-8.498-14.717-27.336-20.222-42.108-11.805l-.378.218a104.452 104.452 0 00-24.414 19.518l22.393 38.786-18.244.079c-16.946 0-31.174 13.526-31.263 30.517a103.194 103.194 0 004.724 31.432l44.743-.002-9.106 15.712c-8.534 14.766-3.808 33.898 10.917 42.449 9.147 5.285 19.058 9.179 29.436 11.462l22.374-38.747 9.127 15.808c8.497 14.718 27.335 20.222 42.149 11.781l.336-.194a103.234 103.234 0 0024.434-19.584l-22.371-38.745 18.231-.012c16.94 0 31.17-13.525 31.26-30.517.06-10.655-1.53-21.255-4.77-31.408l-44.74.002 9.12-15.778c8.54-14.766 3.81-33.898-10.955-42.425a103.154 103.154 0 00-29.395-11.485zm-197.016 61.752l-22.374 38.747-9.127-15.808c-8.497-14.717-27.335-20.222-42.107-11.805l-.378.218a104.452 104.452 0 00-24.414 19.518l22.393 38.786-18.244.079c-16.946 0-31.174 13.525-31.263 30.517a103.194 103.194 0 004.724 31.432l44.742-.002-9.105 15.712c-8.534 14.766-3.808 33.898 10.916 42.449 9.148 5.285 19.059 9.179 29.437 11.462l22.374-38.747 9.127 15.808c8.497 14.717 27.335 20.222 42.149 11.781l.336-.194a103.264 103.264 0 0024.432-19.584l-22.369-38.745 18.226-.012c16.947 0 31.174-13.526 31.263-30.517.057-10.655-1.532-21.255-4.766-31.408l-44.742.002 9.123-15.778c8.534-14.766 3.808-33.898-10.958-42.425a103.186 103.186 0 00-29.395-11.486zM613.371 574.196l-22.373 38.747-9.127-15.808c-8.497-14.718-27.336-20.222-42.108-11.806l-.377.218a104.44 104.44 0 00-24.415 19.519l22.394 38.786-18.244.079c-16.947 0-31.174 13.525-31.264 30.517a103.225 103.225 0 004.724 31.432l44.743-.002-9.106 15.712c-8.533 14.766-3.808 33.898 10.917 42.449 9.148 5.285 19.058 9.179 29.437 11.461l22.373-38.746 9.127 15.808c8.497 14.717 27.336 20.222 42.15 11.781l.335-.194a103.203 103.203 0 0024.432-19.585L644.62 705.82l18.226-.012c16.947 0 31.174-13.526 31.264-30.518.056-10.655-1.533-21.254-4.766-31.408l-44.743.003 9.124-15.778c8.533-14.767 3.807-33.898-10.959-42.425a103.174 103.174 0 00-29.395-11.486zm197.016-61.753l-22.373 38.747-9.127-15.808c-8.497-14.718-27.336-20.222-42.108-11.806l-.377.218a104.466 104.466 0 00-24.415 19.519l22.394 38.786-18.244.079c-16.947 0-31.174 13.525-31.264 30.517a103.225 103.225 0 004.724 31.432l44.743-.002-9.106 15.712c-8.533 14.766-3.808 33.898 10.917 42.449 9.148 5.285 19.058 9.179 29.437 11.461l22.373-38.746 9.127 15.808c8.497 14.717 27.336 20.222 42.15 11.781l.335-.194a103.203 103.203 0 0024.432-19.585l-22.369-38.744 18.226-.012c16.947 0 31.175-13.526 31.264-30.517.056-10.656-1.533-21.255-4.766-31.409l-44.743.003 9.124-15.778c8.533-14.767 3.808-33.898-10.959-42.425a103.174 103.174 0 00-29.395-11.486z" fill="#fff"/><path d="M568.336 775.189l-22.374 38.747-9.126-15.808c-8.498-14.718-27.336-20.222-42.108-11.805l-.378.218a104.452 104.452 0 00-24.414 19.518l22.393 38.786-18.244.079c-16.946 0-31.174 13.525-31.263 30.517a103.194 103.194 0 004.724 31.432l44.743-.002-9.106 15.712c-8.533 14.766-3.808 33.898 10.917 42.449 9.147 5.285 19.058 9.179 29.437 11.461l22.373-38.746 9.127 15.808c8.497 14.717 27.336 20.222 42.149 11.781l.336-.194a103.223 103.223 0 0024.432-19.585l-22.369-38.744 18.226-.012c16.947 0 31.174-13.526 31.264-30.517.056-10.655-1.533-21.255-4.766-31.408l-44.743.002 9.124-15.778c8.533-14.766 3.807-33.898-10.959-42.425a103.186 103.186 0 00-29.395-11.486zM416.234 635.74l-22.373 38.747-9.127-15.808c-8.497-14.718-27.336-20.223-42.108-11.806l-.377.218a104.39 104.39 0 00-24.414 19.519l22.393 38.786-18.244.078c-16.947 0-31.174 13.526-31.264 30.517a103.201 103.201 0 004.725 31.433l44.742-.003-9.106 15.712c-8.533 14.767-3.807 33.898 10.917 42.449 9.148 5.285 19.059 9.179 29.437 11.462l22.373-38.747 9.127 15.808c8.497 14.718 27.336 20.222 42.15 11.781l.335-.193a103.228 103.228 0 0024.432-19.585l-22.369-38.744 18.227-.013c16.946 0 31.174-13.525 31.263-30.517.057-10.655-1.533-21.255-4.766-31.408l-44.743.003 9.124-15.779c8.533-14.766 3.808-33.898-10.959-42.424a103.145 103.145 0 00-29.395-11.486zm940.206-107.586l-22.48 38.807-9.12-15.808c-8.5-14.718-27.38-20.201-42.2-11.758l-.37.219a105.062 105.062 0 00-24.5 19.567l22.39 38.786-18.29.103c-16.98.023-31.26 13.579-31.37 30.584a102.89 102.89 0 004.69 31.45l44.85-.063-9.15 15.737c-8.58 14.789-3.86 33.929 10.88 42.467 9.17 5.277 19.09 9.161 29.49 11.431l22.48-38.808 9.13 15.808c8.5 14.718 27.37 20.202 42.23 11.734l.34-.195a103.679 103.679 0 0024.51-19.633l-22.37-38.744 18.27-.037c16.99-.023 31.27-13.578 31.38-30.583.07-10.664-1.51-21.27-4.73-31.426l-44.85.063 9.17-15.803c8.57-14.79 3.86-33.93-10.93-42.443a103.23 103.23 0 00-29.45-11.455zm45.21-201.654l-22.48 38.807-9.12-15.808c-8.5-14.718-27.37-20.201-42.19-11.758l-.38.219a105.062 105.062 0 00-24.5 19.567l22.39 38.786-18.28.103c-16.99.023-31.27 13.578-31.38 30.584a103.196 103.196 0 004.69 31.45l44.85-.063-9.15 15.736c-8.57 14.79-3.86 33.93 10.89 42.468 9.16 5.277 19.09 9.16 29.49 11.431l22.47-38.808 9.13 15.808c8.5 14.718 27.37 20.201 42.23 11.734l.34-.195a103.931 103.931 0 0024.52-19.633l-22.37-38.744 18.27-.037c16.98-.023 31.26-13.578 31.37-30.584.08-10.663-1.5-21.269-4.73-31.426l-44.85.064 9.17-15.803c8.57-14.79 3.86-33.93-10.93-42.443a103.116 103.116 0 00-29.45-11.455zm45.22-201.654l-22.48 38.808-9.13-15.808c-8.5-14.718-27.37-20.202-42.19-11.758l-.38.218a105.087 105.087 0 00-24.5 19.567l22.4 38.787-18.29.103c-16.99.023-31.27 13.578-31.38 30.583a103.203 103.203 0 004.69 31.451l44.85-.064-9.15 15.737c-8.57 14.79-3.86 33.93 10.89 42.467 9.16 5.277 19.09 9.161 29.49 11.431l22.48-38.807 9.12 15.808c8.5 14.718 27.38 20.201 42.24 11.733l.33-.194a103.982 103.982 0 0024.52-19.633l-22.37-38.744 18.27-.037c16.98-.023 31.26-13.579 31.38-30.584.07-10.663-1.51-21.269-4.74-31.426l-44.85.063 9.17-15.803c8.57-14.789 3.86-33.929-10.93-42.443a103.228 103.228 0 00-29.44-11.455z" fill="#fff"/><path d="M1204.46 388.914l-22.48 38.807-9.12-15.808c-8.5-14.718-27.38-20.201-42.2-11.758l-.37.219a105.062 105.062 0 00-24.5 19.567l22.39 38.786-18.29.103c-16.98.023-31.26 13.578-31.37 30.584a102.89 102.89 0 004.69 31.45l44.85-.063-9.15 15.736c-8.58 14.79-3.86 33.93 10.88 42.468 9.17 5.277 19.09 9.16 29.49 11.431l22.48-38.808 9.13 15.808c8.5 14.718 27.37 20.201 42.23 11.734l.34-.195a103.679 103.679 0 0024.51-19.633l-22.37-38.744 18.27-.037c16.99-.023 31.27-13.578 31.38-30.583.07-10.664-1.51-21.27-4.73-31.427l-44.85.064 9.17-15.803c8.57-14.79 3.86-33.93-10.93-42.443a103.23 103.23 0 00-29.45-11.455zm45.21-201.655l-22.48 38.808-9.12-15.808c-8.5-14.718-27.38-20.201-42.19-11.758l-.38.219a105.036 105.036 0 00-24.5 19.567l22.39 38.786-18.28.103c-16.99.023-31.27 13.578-31.38 30.583a103.198 103.198 0 004.69 31.451l44.85-.063-9.15 15.736c-8.57 14.79-3.86 33.93 10.89 42.468 9.16 5.276 19.09 9.16 29.49 11.43l22.47-38.807 9.13 15.808c8.5 14.718 27.37 20.201 42.23 11.734l.34-.195a103.982 103.982 0 0024.52-19.633l-22.37-38.744 18.27-.037c16.98-.023 31.26-13.579 31.37-30.584.07-10.663-1.5-21.269-4.73-31.426l-44.85.063 9.17-15.802c8.57-14.79 3.86-33.93-10.93-42.443a103.261 103.261 0 00-29.45-11.456zM872.934 1054.87l-22.374 38.74-9.127-15.8c-8.497-14.72-27.335-20.23-42.107-11.81l-.378.22a102.756 102.756 0 00-24.39 19.56l22.393 38.78-18.25-.02c-16.947 0-31.174 13.52-31.264 30.51a103.127 103.127 0 004.725 31.43h44.742l-9.124 15.78c-8.533 14.77-3.807 33.9 10.917 42.45 9.172 5.33 19.101 9.15 29.479 11.44l22.374-38.75 9.126 15.81c8.498 14.72 27.36 20.26 42.15 11.78l.336-.19a103.363 103.363 0 0024.432-19.59l-22.394-38.79 18.227-.01c16.988-.02 31.174-13.52 31.263-30.51.057-10.66-1.575-21.24-4.742-31.37h-44.742l9.123-15.78c8.534-14.76 3.832-33.85-10.917-42.45-9.213-5.3-19.124-9.19-29.478-11.43zm-196.968 61.83l-22.373 38.75-9.127-15.81c-8.497-14.71-27.336-20.22-42.108-11.8l-.377.22a102.736 102.736 0 00-24.39 19.56l22.393 38.78-18.25-.03c-16.947 0-31.174 13.53-31.264 30.52a103.249 103.249 0 004.724 31.43h44.743l-9.124 15.78c-8.533 14.76-3.807 33.9 10.917 42.45 9.172 5.32 19.1 9.15 29.479 11.43l22.373-38.74 9.127 15.81c8.497 14.71 27.36 20.26 42.15 11.78l.335-.2a103.033 103.033 0 0024.432-19.58l-22.393-38.79 18.226-.01c16.989-.02 31.174-13.53 31.264-30.52.056-10.65-1.575-21.23-4.742-31.36h-44.743l9.124-15.78c8.533-14.77 3.832-33.86-10.917-42.45-9.214-5.3-19.124-9.2-29.479-11.44zm-197.016 61.76l-22.373 38.74-9.127-15.8c-8.497-14.72-27.336-20.23-42.108-11.81l-.377.22a102.736 102.736 0 00-24.39 19.56l22.393 38.78-18.25-.02c-16.947 0-31.175 13.52-31.264 30.51a103.157 103.157 0 004.724 31.43h44.743l-9.124 15.78c-8.533 14.77-3.808 33.9 10.917 42.45 9.172 5.33 19.1 9.15 29.479 11.44l22.373-38.75 9.127 15.81c8.497 14.72 27.36 20.26 42.15 11.78l.335-.19a103.323 103.323 0 0024.432-19.59l-22.393-38.79 18.226-.01c16.989-.02 31.174-13.52 31.264-30.51.056-10.66-1.575-21.24-4.742-31.37h-44.743l9.124-15.78c8.533-14.76 3.832-33.85-10.917-42.45-9.214-5.3-19.125-9.19-29.479-11.43z" fill="#fff"/><path d="M630.931 1317.7l-22.373 38.74-9.127-15.8c-8.497-14.72-27.336-20.23-42.108-11.81l-.377.22a102.736 102.736 0 00-24.39 19.56l22.393 38.79-18.251-.03c-16.946 0-31.174 13.52-31.263 30.51a103.236 103.236 0 004.724 31.44l44.743-.01-9.124 15.78c-8.533 14.77-3.808 33.9 10.917 42.45 9.172 5.33 19.1 9.15 29.479 11.44l22.373-38.75 9.127 15.81c8.497 14.72 27.36 20.26 42.15 11.78l.335-.19a103.323 103.323 0 0024.432-19.59l-22.393-38.79 18.226-.01c16.989-.02 31.174-13.52 31.264-30.51.056-10.66-1.575-21.24-4.742-31.37h-44.743l9.124-15.78c8.533-14.76 3.832-33.85-10.917-42.45-9.214-5.3-19.125-9.19-29.479-11.43zm197.016-61.76l-22.373 38.75-9.127-15.81c-8.497-14.71-27.336-20.22-42.108-11.8l-.377.22a102.736 102.736 0 00-24.39 19.56l22.393 38.78-18.25-.03c-16.947 0-31.175 13.53-31.264 30.52a103.203 103.203 0 004.724 31.43h44.743l-9.124 15.78c-8.533 14.76-3.807 33.9 10.917 42.45 9.172 5.32 19.1 9.15 29.479 11.43l22.373-38.74 9.127 15.81c8.497 14.71 27.36 20.26 42.15 11.78l.335-.2a103.033 103.033 0 0024.432-19.58l-22.393-38.79 18.226-.01c16.989-.02 31.174-13.53 31.264-30.52.056-10.65-1.575-21.23-4.742-31.36h-44.743l9.124-15.78c8.533-14.77 3.832-33.86-10.917-42.45-9.214-5.3-19.125-9.2-29.479-11.44zm-44.793 201.42l-22.374 38.74-9.126-15.8c-8.498-14.72-27.336-20.23-42.108-11.81l-.378.22a102.776 102.776 0 00-24.39 19.56l22.393 38.78-18.25-.03c-16.947 0-31.174 13.53-31.263 30.52a103.095 103.095 0 004.724 31.43h44.742l-9.123 15.78c-8.534 14.77-3.808 33.9 10.917 42.45 9.171 5.33 19.1 9.15 29.478 11.44l22.374-38.75 9.127 15.81c8.497 14.72 27.36 20.26 42.149 11.78l.336-.19a103.363 103.363 0 0024.432-19.59l-22.393-38.79 18.226-.01c16.988-.02 31.174-13.52 31.263-30.52.057-10.65-1.574-21.23-4.742-31.36h-44.742l9.123-15.78c8.534-14.76 3.832-33.85-10.916-42.45-9.214-5.3-19.125-9.19-29.479-11.43zm-196.773 62.17l-22.374 38.75-9.126-15.81c-8.498-14.72-27.336-20.23-42.108-11.81l-.378.22a103.025 103.025 0 00-24.39 19.56l22.394 38.79-18.251-.03c-16.946 0-31.174 13.52-31.263 30.51a103.205 103.205 0 004.724 31.44l44.742-.01-9.123 15.78c-8.533 14.77-3.808 33.9 10.917 42.45 9.172 5.33 19.1 9.16 29.478 11.44l22.374-38.75 9.127 15.81c8.497 14.72 27.36 20.26 42.149 11.78l.336-.19a103.343 103.343 0 0024.432-19.59l-22.393-38.78 18.226-.02c16.988-.02 31.174-13.52 31.263-30.51.057-10.66-1.574-21.23-4.742-31.37h-44.742l9.124-15.78c8.533-14.76 3.831-33.85-10.917-42.44-9.214-5.31-19.125-9.2-29.479-11.44zm483.339-526.618l-22.37 38.748-9.13-15.81c-8.5-14.72-27.34-20.221-42.108-11.8l-.378.21a103.025 103.025 0 00-24.39 19.56l22.393 38.79-18.25-.03c-16.988.02-31.174 13.53-31.263 30.52-.057 10.65 1.532 21.25 4.766 31.41l44.742-.01-9.165 15.81c-8.534 14.76-3.808 33.89 10.958 42.42a103.184 103.184 0 0029.395 11.49l22.37-38.75 9.13 15.81c8.5 14.72 27.36 20.26 42.11 11.8l.33-.19c9.11-5.26 17.33-11.85 24.44-19.59l-22.4-38.78 18.23-.01c16.95 0 31.17-13.53 31.26-30.52.06-10.66-1.53-21.26-4.76-31.41h-44.75l9.13-15.77c8.53-14.77 3.83-33.86-10.92-42.45-9.15-5.289-19.06-9.183-29.37-11.448zm-44.82 201.368l-22.37 38.75-9.127-15.81c-8.497-14.72-27.336-20.22-42.108-11.8l-.377.21a103.328 103.328 0 00-24.39 19.56l22.393 38.79-18.268.04c-16.947 0-31.174 13.52-31.264 30.51-.056 10.66 1.533 21.26 4.767 31.41h44.742l-9.124 15.78c-8.515 14.7-3.789 33.83 10.935 42.38 9.148 5.29 19.1 9.16 29.437 11.46l22.374-38.74 9.13 15.8c8.49 14.72 27.36 20.27 42.15 11.78l.33-.19c9.1-5.25 17.32-11.85 24.43-19.58l-22.39-38.79 18.23-.01c16.98-.03 31.17-13.53 31.26-30.52.06-10.65-1.53-21.25-4.77-31.41l-44.74.01 9.12-15.78c8.54-14.77 3.81-33.9-10.95-42.43-9.15-5.28-19.08-9.11-29.42-11.42zm241.56-263.299l-22.37 38.746-9.13-15.807c-8.49-14.718-27.33-20.223-42.1-11.806l-.38.218a103.193 103.193 0 00-24.39 19.56l22.39 38.788-18.29-.01c-16.95 0-31.17 13.53-31.26 30.52-.06 10.66 1.53 21.26 4.76 31.41h44.74l-9.09 15.82c-8.54 14.76-3.81 33.89 10.95 42.42 9.18 5.33 19.06 9.18 29.4 11.49l22.37-38.75 9.13 15.81c8.5 14.72 27.36 20.26 42.15 11.78l.33-.19c9.11-5.26 17.33-11.85 24.44-19.59l-22.4-38.79 18.23-.01c16.95 0 31.17-13.52 31.26-30.52.06-10.65-1.53-21.25-4.76-31.4h-44.75l9.13-15.779c8.53-14.766 3.83-33.856-10.96-42.424-9.17-5.327-19.1-9.156-29.4-11.486z" fill="#fff"/><path d="M1418.43 1070.39l-22.37 38.75-9.13-15.81c-8.49-14.71-27.33-20.22-42.1-11.8l-.38.22a103.117 103.117 0 00-24.39 19.56l22.39 38.78-18.22.01c-16.95 0-31.18 13.53-31.27 30.52-.05 10.66 1.53 21.26 4.77 31.41h44.74l-9.12 15.78c-8.54 14.76-3.81 33.89 10.96 42.42 9.14 5.28 19.05 9.18 29.39 11.49l22.37-38.75 9.13 15.81c8.5 14.71 27.34 20.22 42.15 11.78l.34-.2c9.1-5.25 17.32-11.84 24.43-19.58l-22.4-38.79 18.23-.01c16.95 0 31.17-13.52 31.26-30.52.06-10.65-1.53-21.25-4.72-31.43h-44.74l9.12-15.77c8.53-14.77 3.81-33.9-10.96-42.43-9.19-5.26-19.14-9.13-29.48-11.44z" fill="#fff"/><path d="M1615.23 1008.55l-22.38 38.74-9.12-15.8c-8.5-14.72-27.34-20.23-42.11-11.81l-.38.22a103.117 103.117 0 00-24.39 19.56l22.39 38.79-18.22.01c-16.95 0-31.18 13.52-31.26 30.51-.06 10.66 1.53 21.26 4.76 31.41h44.74l-9.12 15.78c-8.53 14.76-3.81 33.9 10.96 42.42 9.15 5.29 19.06 9.18 29.39 11.49l22.38-38.75 9.12 15.81c8.5 14.72 27.34 20.22 42.15 11.78l.34-.19c9.1-5.26 17.32-11.85 24.43-19.59l-22.39-38.78 18.22-.02c16.95 0 31.18-13.52 31.27-30.51.05-10.66-1.54-21.26-4.73-31.43h-44.74l9.12-15.78c8.54-14.77 3.81-33.9-10.95-42.43-9.19-5.26-19.15-9.13-29.48-11.43zm196.85-61.942l-22.37 38.747-9.13-15.808c-8.5-14.718-27.34-20.222-42.11-11.805l-.38.217a103.197 103.197 0 00-24.39 19.561l22.4 38.79-18.23.01c-16.95 0-31.17 13.52-31.26 30.52-.06 10.65 1.53 21.25 4.76 31.4h44.75l-9.13 15.78c-8.53 14.77-3.8 33.9 10.96 42.42 9.15 5.29 19.06 9.18 29.4 11.49l22.37-38.75 9.13 15.81c8.49 14.72 27.33 20.22 42.15 11.78l.33-.19c9.1-5.26 17.32-11.85 24.43-19.59l-22.39-38.78 18.23-.01c16.94 0 31.17-13.53 31.26-30.52a103.06 103.06 0 00-4.72-31.43h-44.75l9.13-15.78c8.53-14.766 3.8-33.898-10.96-42.424a105.738 105.738 0 00-29.48-11.438zm45.21-201.653l-22.37 38.747-9.13-15.808c-8.5-14.718-27.33-20.223-42.11-11.806l-.37.218a103.172 103.172 0 00-24.39 19.561l22.39 38.786-18.23.012c-16.94 0-31.17 13.526-31.26 30.517-.06 10.655 1.53 21.255 4.77 31.408l44.74-.002-9.12 15.778c-8.54 14.766-3.81 33.898 10.95 42.425a104.16 104.16 0 0029.4 11.486l22.37-38.747 9.13 15.808c8.5 14.717 27.33 20.222 42.15 11.781l.33-.194a103.144 103.144 0 0024.44-19.584l-22.4-38.787 18.23-.012c16.95 0 31.17-13.526 31.26-30.517a103.14 103.14 0 00-4.72-31.433l-44.74.003 9.12-15.778c8.53-14.767 3.81-33.898-10.96-42.425a105.705 105.705 0 00-29.48-11.437z" fill="#fff"/><path d="M1463.17 869.073l-22.38 38.747-9.12-15.808c-8.5-14.718-27.34-20.223-42.11-11.806l-.38.218a103.172 103.172 0 00-24.39 19.561l22.39 38.786-18.22.012c-16.95 0-31.18 13.526-31.26 30.517a101.717 101.717 0 004.76 31.41h44.74l-9.12 15.77c-8.53 14.77-3.81 33.9 10.96 42.43 9.15 5.28 19.06 9.18 29.39 11.48l22.38-38.74 9.12 15.81c8.5 14.71 27.34 20.22 42.15 11.78l.34-.2c9.1-5.25 17.32-11.84 24.43-19.58l-22.39-38.79 18.22-.01c16.95 0 31.18-13.526 31.27-30.517a103.139 103.139 0 00-4.73-31.432l-44.74.002 9.12-15.778c8.54-14.767 3.81-33.898-10.95-42.425a105.824 105.824 0 00-29.48-11.437zm196.81-61.914l-22.37 38.746-9.13-15.808c-8.5-14.717-27.34-20.222-42.11-11.805l-.38.218a103.193 103.193 0 00-24.39 19.56l22.4 38.786-18.23.013c-16.95 0-31.17 13.525-31.26 30.517a101.695 101.695 0 004.76 31.408l44.75-.003-9.13 15.779c-8.53 14.766-3.81 33.898 10.96 42.424a104.219 104.219 0 0029.4 11.486l22.37-38.746 9.13 15.807c8.49 14.719 27.33 20.219 42.15 11.782l.33-.194a103.273 103.273 0 0024.43-19.585l-22.39-38.786 18.23-.012c16.94 0 31.17-13.526 31.26-30.517a102.84 102.84 0 00-4.73-31.433l-44.74.003 9.13-15.778c8.53-14.767 3.8-33.898-10.96-42.425a105.824 105.824 0 00-29.48-11.437zm45.21-201.654l-22.37 38.747-9.13-15.808c-8.5-14.718-27.34-20.222-42.11-11.806l-.38.218a103.172 103.172 0 00-24.39 19.561l22.4 38.786-18.23.012c-16.95 0-31.17 13.526-31.26 30.518a101.7 101.7 0 004.76 31.408l44.75-.003-9.13 15.778c-8.53 14.767-3.8 33.898 10.96 42.425a104.16 104.16 0 0029.4 11.486l22.37-38.747 9.13 15.808c8.49 14.718 27.33 20.222 42.15 11.781l.33-.193a103.298 103.298 0 0024.43-19.585l-22.39-38.786 18.23-.012c16.94-.001 31.17-13.526 31.26-30.518a103.133 103.133 0 00-4.72-31.432l-44.75.003 9.13-15.779c8.53-14.766 3.81-33.898-10.96-42.424a105.738 105.738 0 00-29.48-11.438zm-483.57 526.805l-22.37 38.74-9.13-15.8c-8.49-14.72-27.33-20.23-42.1-11.81l-.38.22a103.117 103.117 0 00-24.39 19.56l22.39 38.79-18.22.01c-16.95 0-31.18 13.52-31.27 30.52-.05 10.65 1.53 21.25 4.77 31.4l44.78-.02-9.19 15.76c-8.53 14.76-3.81 33.9 10.96 42.42 9.17 5.33 19.06 9.18 29.4 11.49l22.37-38.75 9.13 15.81c8.49 14.72 27.36 20.26 42.15 11.78l.33-.19c9.1-5.26 17.32-11.85 24.43-19.59l-22.41-38.83 18.22-.01c16.95 0 31.18-13.52 31.27-30.52.05-10.65-1.54-21.25-4.77-31.4h-44.74l9.12-15.78c8.53-14.77 3.81-33.9-10.92-42.45-9.16-5.22-19.07-9.11-29.43-11.35zm-241.474 263.25l-22.374 38.75-9.127-15.81c-8.497-14.72-27.335-20.22-42.107-11.81l-.378.22a103.097 103.097 0 00-24.39 19.56l22.393 38.79-18.226.01c-16.947 0-31.174 13.53-31.263 30.52-.057 10.65 1.574 21.23 4.742 31.37l44.784-.03-9.124 15.78c-8.533 14.76-3.807 33.89 10.959 42.42a103.195 103.195 0 0029.395 11.49l22.374-38.75 9.126 15.81c8.498 14.72 27.336 20.22 42.11 11.8l.33-.19c9.11-5.26 17.33-11.85 24.44-19.58l-22.4-38.79 18.23-.01c16.95 0 31.17-13.53 31.26-30.52.06-10.66-1.53-21.25-4.76-31.41h-44.75l9.13-15.77c8.53-14.77 3.8-33.9-10.96-42.43-9.19-5.26-19.12-9.09-29.414-11.42z" fill="#fff"/><path d="M1176.89 1333.63l-22.37 38.75-9.13-15.81c-8.5-14.72-27.34-20.22-42.11-11.81l-.38.22a103.117 103.117 0 00-24.39 19.56l22.4 38.79-18.29-.01c-16.95 0-31.18 13.53-31.27 30.52-.05 10.65 1.53 21.25 4.77 31.41h44.74l-9.12 15.77c-8.54 14.77-3.81 33.9 10.96 42.43a102.78 102.78 0 0029.39 11.48l22.37-38.74 9.13 15.81c8.5 14.71 27.34 20.22 42.11 11.8l.33-.19c9.11-5.26 17.33-11.85 24.44-19.59l-22.4-38.78 18.23-.02c16.95 0 31.17-13.52 31.26-30.51.06-10.66-1.53-21.26-4.76-31.41h-44.75l9.15-15.84c8.53-14.77 3.8-33.9-10.96-42.43-9.13-5.24-19.04-9.14-29.35-11.4zm196.74-61.93l-22.37 38.75-9.13-15.81c-8.49-14.72-27.33-20.22-42.1-11.81l-.38.22a103.117 103.117 0 00-24.39 19.56l22.39 38.79-18.22.01c-16.95 0-31.18 13.52-31.27 30.52-.05 10.65 1.54 21.25 4.77 31.4h44.74l-9.12 15.78c-8.54 14.77-3.81 33.9 10.96 42.42a103.21 103.21 0 0029.39 11.49l22.38-38.75 9.12 15.81c8.5 14.72 27.34 20.22 42.15 11.78l.34-.19c9.1-5.26 17.32-11.85 24.43-19.59l-22.39-38.78 18.22-.01c16.95 0 31.18-13.53 31.27-30.52.05-10.66-1.54-21.26-4.77-31.41h-44.74l9.12-15.77c8.53-14.77 3.81-33.9-10.92-42.45-9.25-5.28-19.14-9.13-29.48-11.44z" fill="#fff"/><path d="M1570.27 1209.77l-22.37 38.75-9.13-15.81c-8.5-14.72-27.33-20.22-42.11-11.8l-.37.21a103.208 103.208 0 00-24.39 19.57l22.39 38.78-18.23.01c-16.94 0-31.17 13.53-31.26 30.52-.06 10.66 1.53 21.26 4.77 31.41h44.74l-9.13 15.77c-8.53 14.77-3.8 33.9 10.96 42.43 9.17 5.33 19.06 9.18 29.4 11.49l22.37-38.75 9.13 15.81c8.5 14.71 27.33 20.22 42.15 11.78l.33-.2c9.11-5.25 17.33-11.84 24.44-19.58l-22.4-38.79 18.23-.01c16.95 0 31.17-13.52 31.26-30.52.06-10.65-1.53-21.25-4.76-31.4h-44.75l9.13-15.78c8.53-14.77 3.8-33.9-10.92-42.45-9.26-5.28-19.14-9.13-29.48-11.44zm196.77-62.17l-22.37 38.75-9.13-15.81c-8.49-14.72-27.33-20.22-42.1-11.81l-.38.22a103.117 103.117 0 00-24.39 19.56l22.39 38.79-18.22.01c-16.95 0-31.18 13.53-31.27 30.52-.05 10.65 1.54 21.25 4.77 31.41l44.74-.01-9.12 15.78c-8.54 14.77-3.81 33.9 10.96 42.43 9.17 5.32 19.05 9.18 29.39 11.48l22.37-38.74 9.13 15.8c8.5 14.72 27.34 20.23 42.15 11.79l.34-.2c9.1-5.25 17.32-11.84 24.43-19.58l-22.39-38.79 18.22-.01c16.95 0 31.18-13.53 31.27-30.52.05-10.65-1.54-21.25-4.77-31.41l-44.74.01 9.12-15.78c8.53-14.77 3.81-33.9-10.92-42.45-9.25-5.28-19.14-9.13-29.48-11.44zm197.02-61.75l-22.37 38.75-9.13-15.81c-8.5-14.72-27.34-20.22-42.11-11.81l-.38.22a103.117 103.117 0 00-24.39 19.56l22.4 38.79-18.23.01c-16.95 0-31.17 13.53-31.26 30.52-.06 10.65 1.53 21.25 4.76 31.41l44.75-.01-9.13 15.78c-8.53 14.77-3.8 33.9 10.96 42.43 9.17 5.32 19.06 9.17 29.4 11.48l22.37-38.75 9.13 15.81c8.49 14.72 27.33 20.23 42.15 11.78l.33-.19c9.1-5.25 17.32-11.85 24.43-19.58l-22.39-38.79 18.23-.01c16.94 0 31.17-13.53 31.26-30.52.06-10.66-1.53-21.25-4.77-31.41h-44.74l9.13-15.77c8.53-14.77 3.8-33.9-10.92-42.45-9.26-5.28-19.14-9.13-29.48-11.44zM738.361 1658.77l-22.373 38.75-9.127-15.81c-8.497-14.72-27.336-20.22-42.108-11.81l-.377.22a102.985 102.985 0 00-24.39 19.56l22.393 38.79-18.25-.03c-16.947 0-31.174 13.52-31.264 30.51a103.267 103.267 0 004.724 31.44l44.743-.01-9.124 15.78c-8.533 14.77-3.807 33.9 10.917 42.45 9.172 5.33 19.1 9.16 29.479 11.44l22.373-38.75 9.127 15.81c8.497 14.72 27.36 20.26 42.15 11.78l.335-.19a103.323 103.323 0 0024.432-19.59l-22.393-38.78 18.226-.02c16.989-.02 31.174-13.52 31.264-30.51.056-10.66-1.575-21.23-4.742-31.37h-44.743l9.124-15.78c8.533-14.76 3.832-33.85-10.917-42.44-9.214-5.31-19.125-9.2-29.479-11.44zm196.991-61.8l-22.373 38.75-9.127-15.81c-8.497-14.72-27.336-20.22-42.108-11.8l-.377.21a103.37 103.37 0 00-24.39 19.57l22.393 38.78-18.226.01c-16.947 0-31.174 13.53-31.264 30.52-.056 10.66 1.575 21.23 4.742 31.37l44.784-.03-9.123 15.78c-8.533 14.77-3.808 33.9 10.959 42.42a103.184 103.184 0 0029.395 11.49l22.373-38.75 9.127 15.81c8.497 14.72 27.336 20.22 42.108 11.81l.335-.2a103.033 103.033 0 0024.432-19.58l-22.393-38.79 18.226-.01c16.945 0 31.175-13.53 31.265-30.52.06-10.65-1.53-21.25-4.77-31.41l-44.74.01 9.124-15.78c8.533-14.77 3.807-33.9-10.959-42.43-9.19-5.26-19.118-9.09-29.413-11.42z" fill="#fff"/><path d="M1132.1 1535.04l-22.38 38.75-9.12-15.81c-8.5-14.72-27.34-20.22-42.11-11.8l-.38.21a103.368 103.368 0 00-24.39 19.56l22.39 38.79-18.29-.01c-16.94 0-31.17 13.53-31.26 30.52-.06 10.66 1.53 21.26 4.77 31.41h44.74l-9.13 15.78c-8.53 14.76-3.8 33.89 10.96 42.42 9.17 5.33 19.06 9.18 29.4 11.49l22.37-38.75 9.13 15.81c8.5 14.72 27.33 20.22 42.11 11.8l.33-.19c9.1-5.26 17.32-11.85 24.43-19.59l-22.39-38.78 18.23-.01c16.94 0 31.17-13.53 31.26-30.52.06-10.66-1.53-21.26-4.77-31.41h-44.74l9.14-15.84c8.54-14.77 3.81-33.9-10.96-42.43-9.12-5.24-19.03-9.13-29.34-11.4zm196.74-61.93l-22.37 38.75-9.13-15.81c-8.5-14.72-27.33-20.22-42.11-11.81l-.37.22a103.117 103.117 0 00-24.39 19.56l22.39 38.79-18.23.01c-16.94 0-31.17 13.53-31.26 30.52-.06 10.65 1.53 21.25 4.77 31.41l44.74-.01-9.13 15.78c-8.53 14.77-3.8 33.9 10.96 42.43 9.18 5.32 19.06 9.18 29.4 11.48l22.37-38.74 9.13 15.8c8.5 14.72 27.33 20.23 42.15 11.79l.33-.2c9.11-5.25 17.33-11.84 24.44-19.58l-22.4-38.79 18.23-.01c16.95 0 31.17-13.53 31.26-30.52.06-10.65-1.53-21.25-4.76-31.41l-44.75.01 9.13-15.78c8.53-14.77 3.81-33.9-10.92-42.45-9.26-5.28-19.14-9.13-29.48-11.44z" fill="#fff"/><path d="M1525.48 1411.19l-22.37 38.74-9.13-15.81c-8.5-14.71-27.34-20.22-42.11-11.8l-.38.22a103.117 103.117 0 00-24.39 19.56l22.4 38.78-18.23.02c-16.95 0-31.17 13.52-31.26 30.51-.06 10.66 1.53 21.26 4.76 31.41h44.75l-9.13 15.78c-8.53 14.76-3.81 33.89 10.96 42.42 9.17 5.33 19.06 9.18 29.4 11.49l22.37-38.75 9.13 15.81c8.49 14.72 27.33 20.22 42.15 11.78l.33-.19c9.1-5.26 17.32-11.85 24.43-19.59l-22.39-38.78 18.23-.02c16.94 0 31.17-13.52 31.26-30.51.06-10.66-1.53-21.26-4.77-31.41h-44.74l9.12-15.78c8.54-14.76 3.81-33.9-10.91-42.45-9.26-5.28-19.14-9.13-29.48-11.43zm196.77-62.18l-22.37 38.75-9.13-15.81c-8.5-14.72-27.33-20.22-42.11-11.8l-.37.21a103.41 103.41 0 00-24.39 19.57l22.39 38.78-18.23.01c-16.94 0-31.17 13.53-31.26 30.52-.06 10.66 1.53 21.26 4.77 31.41h44.74l-9.13 15.77c-8.53 14.77-3.8 33.9 10.96 42.43 9.18 5.33 19.06 9.18 29.4 11.49l22.37-38.75 9.13 15.81c8.5 14.71 27.33 20.22 42.15 11.78l.33-.2c9.11-5.25 17.33-11.84 24.44-19.58l-22.4-38.79 18.23-.01c16.95 0 31.17-13.52 31.26-30.52.06-10.65-1.53-21.25-4.76-31.4h-44.75l9.13-15.78c8.53-14.77 3.8-33.9-10.92-42.45-9.26-5.28-19.14-9.13-29.48-11.44zm197.02-61.75l-22.38 38.75-9.12-15.81c-8.5-14.72-27.34-20.22-42.11-11.81l-.38.22a103.117 103.117 0 00-24.39 19.56l22.4 38.79-18.23.01c-16.95 0-31.17 13.53-31.26 30.52-.06 10.65 1.53 21.25 4.76 31.41l44.74-.01-9.12 15.78c-8.53 14.77-3.81 33.9 10.96 42.43 9.17 5.32 19.06 9.18 29.39 11.48l22.38-38.74 9.12 15.8c8.5 14.72 27.34 20.23 42.15 11.79l.34-.2c9.1-5.25 17.32-11.84 24.43-19.58l-22.39-38.79 18.22-.01c16.95 0 31.18-13.53 31.27-30.52.05-10.65-1.53-21.25-4.77-31.41l-44.74.01 9.12-15.78c8.54-14.77 3.81-33.9-10.91-42.45-9.26-5.28-19.15-9.13-29.48-11.44z" fill="#fff"/></svg>