<svg width="590" height="618" fill="none" xmlns="http://www.w3.org/2000/svg"><path d="M496.041 84.351L384.34 150.54V96.521c.186-24.24-8.976-47.571-25.485-64.904C342.345 14.284 319.827 4.357 296.213 4h-1.317a289.887 289.887 0 00-88.82 14.234v132.448l-45.554-26.974c-20.303-12.252-44.496-15.783-67.321-9.826-22.825 5.957-42.437 20.921-54.573 41.639C23.082 182.667 11.738 212.127 5 242.847l111.701 66.188-45.554 26.974c-20.538 12.023-35.613 31.892-41.939 55.276-6.325 23.384-3.387 48.386 8.172 69.557 15.188 27.129 34.34 51.708 56.787 72.878l111.701-66.188v53.947c-.168 24.222 8.99 47.532 25.481 64.859 16.491 17.327 38.981 27.269 62.576 27.662h1.11a288.332 288.332 0 0089.097-14.234V467.532l45.554 26.973c20.318 12.237 44.516 15.759 67.347 9.804 22.831-5.955 42.455-20.908 54.616-41.617 15.477-27.2 26.729-56.711 33.351-87.468l-111.701-66.189 45.554-26.973c20.548-12.012 35.641-31.87 41.991-55.251 6.35-23.381 3.444-48.39-8.085-69.581-15.186-27.112-34.312-51.688-56.718-72.879z" fill="#00E5B9"/><path d="M386.132 599.766V471.04l42.522 25.178a.04.04 0 00.009.005c20.774 12.509 45.522 16.113 68.875 10.021 23.354-6.091 43.412-21.383 55.836-42.539l.007-.012.006-.012c15.579-27.378 26.904-57.08 33.568-88.036l.303-1.408-1.238-.734-108.797-64.467 42.639-25.247.005-.003c21.007-12.282 36.422-32.576 42.907-56.451 6.485-23.875 3.518-49.415-8.259-71.061l-.006-.011-.006-.011c-15.283-27.286-34.534-52.023-57.087-73.354l-1.375 1.453-1.019-1.72L386.34 147.03V96.529c.188-24.749-9.166-48.58-26.037-66.291C343.429 12.521 320.402 2.364 296.244 2h-1.354a291.894 291.894 0 00-89.433 14.332l-1.381.45v130.391l-42.521-25.177-.007-.004c-20.76-12.526-45.505-16.139-68.852-10.045-23.35 6.094-43.395 21.397-55.793 42.563l-.005.009-.005.008c-15.648 27.324-27.066 56.974-33.847 87.892l-.31 1.412 1.244.737 108.797 64.467-42.64 25.248-.004.002c-20.998 12.293-36.396 32.598-42.855 56.477-6.46 23.88-3.461 49.413 8.347 71.038l.005.009.005.01c15.287 27.305 34.563 52.045 57.16 73.356l1.095 1.033 1.296-.768 108.682-64.399v50.431c-.17 24.73 9.181 48.539 26.032 66.245 16.855 17.709 39.852 27.88 63.992 28.283h1.145a290.296 290.296 0 0089.715-14.333l1.38-.45v-1.451z" stroke="#00E5B9" stroke-opacity=".15" stroke-width="4"/></svg>