<svg width="30" height="30" fill="none" xmlns="http://www.w3.org/2000/svg"><path d="M25.39 3.95l-5.772 3.253V4.548c0-2.472-2.02-4.535-4.553-4.549H15a15.89 15.89 0 00-4.603.683v6.514L8.037 5.88C5.852 4.647 3.01 5.316 1.733 7.45A14.804 14.804 0 000 11.753l5.772 3.254-2.345 1.317c-2.2 1.24-3.016 3.993-1.753 6.14a15.068 15.068 0 002.944 3.585l5.772-3.253v2.655c0 2.472 2.02 4.535 4.56 4.549h.057c1.566 0 3.117-.232 4.61-.69v-6.507l2.353 1.324c2.186 1.232 5.029.563 6.306-1.57A14.588 14.588 0 0030 18.252l-5.772-3.254 2.352-1.324c2.2-1.24 3.016-3.993 1.746-6.14A15.073 15.073 0 0025.39 3.95z" fill="#00E5B9"/></svg>