<?xml version="1.0" encoding="utf-8"?><svg xmlns="http://www.w3.org/2000/svg" xmlns:xlink="http://www.w3.org/1999/xlink"><symbol viewBox="0 0 14 14" id="arrow" xmlns="http://www.w3.org/2000/svg"><path fill-rule="evenodd" clip-rule="evenodd" d="M0 7a.875.875 0 01.875-.874H11.01L7.255 2.37a.876.876 0 011.239-1.238l5.249 5.249a.876.876 0 010 1.239l-5.25 5.25a.876.876 0 01-1.238-1.24l3.756-3.755H.876A.875.875 0 010 7z"/></symbol><symbol viewBox="0 0 20 20" id="close" xmlns="http://www.w3.org/2000/svg"><g clip-path="url(#bclip0)"><path d="M11.172 10.006l8.573-8.574A.833.833 0 1018.568.255L9.994 8.828 1.421.255A.833.833 0 00.243 1.432l8.574 8.574-8.574 8.573a.833.833 0 001.178 1.177l8.573-8.573 8.573 8.573a.833.833 0 001.178-1.177l-8.573-8.573z"/></g><defs><clipPath id="bclip0"><path d="M0 0h20v20H0z"/></clipPath></defs></symbol><symbol viewBox="0 0 375 375" id="dowload" xmlns="http://www.w3.org/2000/svg"><path d="M187.5 31.25c-86.094 0-156.25 70.156-156.25 156.25s70.156 156.25 156.25 156.25 156.25-70.156 156.25-156.25S273.594 31.25 187.5 31.25zm-15.625 125v-46.875c0-8.594 7.031-15.625 15.625-15.625 8.594 0 15.625 7.031 15.625 15.625v46.875h27.969c7.031 0 10.468 8.437 5.468 13.281l-43.593 43.594c-3.125 3.125-7.969 3.125-11.094 0l-43.594-43.594a7.813 7.813 0 015.625-13.281h27.969zM250 265.625H125c-8.594 0-15.625-7.031-15.625-15.625 0-8.594 7.031-15.625 15.625-15.625h125c8.594 0 15.625 7.031 15.625 15.625 0 8.594-7.031 15.625-15.625 15.625z"/></symbol><symbol viewBox="0 0 16 17" id="download-2" xmlns="http://www.w3.org/2000/svg"><g clip-path="url(#dclip0)"><path fill-rule="evenodd" clip-rule="evenodd" d="M2.526 14.816h11.79a.842.842 0 110 1.684H2.526a.842.842 0 110-1.684zM9.263 9.91l2.731-2.73 1.19 1.19-4.763 4.764L3.657 8.37l1.19-1.19L7.58 9.91V.5h1.684v9.41z"/></g><defs><clipPath id="dclip0"><path transform="translate(0 .5)" d="M0 0h16v16H0z"/></clipPath></defs></symbol><symbol viewBox="0 0 18 18" id="email" xmlns="http://www.w3.org/2000/svg"><path d="M16.2 1.8H1.8C.81 1.8.009 2.61.009 3.6L0 14.4c0 .99.81 1.8 1.8 1.8h14.4c.99 0 1.8-.81 1.8-1.8V3.6c0-.99-.81-1.8-1.8-1.8zm-.36 3.825L9.477 9.603a.91.91 0 01-.954 0L2.16 5.625a.765.765 0 11.81-1.296L9 8.099l6.03-3.77a.765.765 0 11.81 1.296z"/></symbol><symbol viewBox="0 0 16 16" id="facebook" xmlns="http://www.w3.org/2000/svg"><path d="M6.173 16V8.492H4.267V5.79h1.906V3.48C6.173 1.666 7.299 0 9.893 0c1.05 0 1.827.105 1.827.105l-.061 2.524s-.792-.008-1.657-.008c-.935 0-1.085.45-1.085 1.194V5.79h2.816l-.122 2.703H8.917V16H6.173z"/></symbol><symbol viewBox="0 0 16 16" id="instagram" xmlns="http://www.w3.org/2000/svg"><path d="M8 5.356A2.65 2.65 0 005.356 8 2.65 2.65 0 008 10.643 2.65 2.65 0 0010.644 8 2.65 2.65 0 008 5.356zM15.93 8c0-1.095.01-2.18-.052-3.273-.061-1.269-.35-2.395-1.279-3.323-.93-.93-2.055-1.218-3.324-1.28C10.18.063 9.094.073 8.002.073c-1.095 0-2.18-.01-3.272.051-1.27.062-2.396.351-3.324 1.28-.93.93-1.218 2.054-1.28 3.323C.067 5.822.077 6.907.077 8c0 1.092-.01 2.18.05 3.272.062 1.27.352 2.396 1.28 3.324.93.93 2.055 1.217 3.324 1.279 1.095.061 2.18.051 3.272.051 1.095 0 2.18.01 3.272-.051 1.27-.062 2.396-.351 3.324-1.28.93-.93 1.218-2.054 1.28-3.323.063-1.093.05-2.178.05-3.272zM8 12.067A4.062 4.062 0 013.933 8 4.062 4.062 0 018 3.932 4.062 4.062 0 0112.068 8 4.062 4.062 0 018 12.067zm4.234-7.352a.949.949 0 110-1.9.949.949 0 110 1.9z"/></symbol><symbol viewBox="0 0 36 37" id="leaf" xmlns="http://www.w3.org/2000/svg"><g clip-path="url(#hclip0)"><path d="M35.938 1.006A.818.818 0 0035.182.5C3.428.5 0 13.66 0 19.318c0 2.036.452 3.937 1.343 5.65.138.266.41.434.707.44.282-.008.578-.148.727-.408 2.144-3.705 8.215-12.85 18.24-17.707a.821.821 0 011.097.376.821.821 0 01-.38 1.095c-.756.366-1.482.766-2.194 1.18-.272.158-.535.327-.802.492a37.357 37.357 0 00-2.32 1.56c-.116.085-.228.171-.342.258C6.097 19.69 0 31.552 0 35.682a.819.819 0 001.636 0c0-1.32.899-3.993 2.599-7.182 2.468 2.017 5.788 3.091 9.674 3.091 10.507 0 12.708-9.998 13.89-15.37 1.59-7.23 5.09-11.453 7.96-14.325a.814.814 0 00.179-.89z"/></g><defs><clipPath id="hclip0"><path transform="translate(0 .5)" d="M0 0h36v36H0z"/></clipPath></defs></symbol><symbol viewBox="0 0 16 16" id="linkedin" xmlns="http://www.w3.org/2000/svg"><g clip-path="url(#iclip0)"><path d="M3.632 15.59V5.35H.202v10.24h3.43zM1.917 3.95c1.196 0 1.94-.787 1.94-1.77C3.836 1.177 3.114.412 1.94.412S0 1.176 0 2.181C0 3.164.744 3.95 1.895 3.95h.022zM5.53 15.59h3.43V9.872c0-.306.022-.612.113-.83.248-.612.812-1.245 1.76-1.245 1.24 0 1.737.939 1.737 2.315v5.48H16V9.718c0-3.146-1.693-4.61-3.95-4.61-1.85 0-2.662 1.027-3.113 1.726h.023V5.35H5.53c.045.96 0 10.241 0 10.241z"/></g><defs><clipPath id="iclip0"><path d="M0 0h16v16H0z"/></clipPath></defs></symbol><symbol viewBox="0 0 18 18" id="location" xmlns="http://www.w3.org/2000/svg"><path d="M9 0C5.03 0 1.8 3.23 1.8 7.196 1.774 12.995 8.727 17.805 9 18c0 0 7.226-5.004 7.2-10.8C16.2 3.23 12.97 0 9 0zm0 10.8a3.599 3.599 0 01-3.6-3.6c0-1.989 1.611-3.6 3.6-3.6 1.99 0 3.6 1.611 3.6 3.6s-1.61 3.6-3.6 3.6z"/></symbol><symbol viewBox="0 0 18 18" id="phone" xmlns="http://www.w3.org/2000/svg"><path d="M12 12.793l1.55-1.551a1.514 1.514 0 011.62-.332l1.889.754A1.51 1.51 0 0118 13.05v3.46A1.503 1.503 0 0116.422 18C3.185 17.173.514 5.96.01 1.668A1.503 1.503 0 011.511 0h3.342a1.494 1.494 0 011.384.941l.754 1.89a1.496 1.496 0 01-.325 1.62l-1.55 1.55s.892 6.044 6.885 6.792z"/></symbol><symbol viewBox="0 0 30 30" id="symbol" xmlns="http://www.w3.org/2000/svg"><path d="M25.39 3.95l-5.772 3.253V4.548c0-2.472-2.02-4.535-4.553-4.549H15c-1.558 0-3.117.232-4.603.683v6.514L8.037 5.88C5.852 4.647 3.01 5.316 1.733 7.45A14.804 14.804 0 000 11.753l5.772 3.254-2.345 1.317c-2.2 1.24-3.016 3.993-1.753 6.14a15.068 15.068 0 002.944 3.585l5.772-3.253v2.655c0 2.472 2.02 4.535 4.56 4.549h.057c1.566 0 3.117-.232 4.61-.69v-6.507l2.353 1.324c2.186 1.232 5.029.563 6.306-1.57A14.588 14.588 0 0030 18.252l-5.772-3.254 2.352-1.324c2.2-1.24 3.016-3.993 1.746-6.14A15.073 15.073 0 0025.39 3.95z"/></symbol><symbol viewBox="0 0 357 357" id="telegram" xmlns="http://www.w3.org/2000/svg"><path d="M178.5 5.578C82.969 5.578 5.578 82.98 5.578 178.5S82.98 351.422 178.5 351.422c95.531 0 172.922-77.402 172.922-172.922S274.02 5.578 178.5 5.578zm84.933 118.468l-28.382 133.741c-2.097 9.483-7.742 11.781-15.619 7.319l-43.23-31.862-20.851 20.081c-2.298 2.298-4.251 4.25-8.713 4.25l3.068-44 80.113-72.382c3.492-3.067-.77-4.808-5.378-1.74l-99.011 62.33-42.673-13.32c-9.27-2.923-9.483-9.271 1.952-13.734l166.719-64.293c7.743-2.789 14.504 1.885 11.993 13.599l.012.011z"/></symbol></svg>