<?xml version="1.0" encoding="utf-8"?><svg xmlns="http://www.w3.org/2000/svg" xmlns:xlink="http://www.w3.org/1999/xlink"><symbol viewBox="0 0 14 14" id="arrow" xmlns="http://www.w3.org/2000/svg"><path fill-rule="evenodd" clip-rule="evenodd" d="M0 7a.875.875 0 01.875-.874H11.01L7.255 2.37a.876.876 0 011.239-1.238l5.249 5.249a.876.876 0 010 1.239l-5.25 5.25a.876.876 0 01-1.238-1.24l3.756-3.755H.876A.875.875 0 010 7z"/></symbol><symbol viewBox="0 0 375 375" id="dowload" xmlns="http://www.w3.org/2000/svg"><path d="M187.5 31.25c-86.094 0-156.25 70.156-156.25 156.25s70.156 156.25 156.25 156.25 156.25-70.156 156.25-156.25S273.594 31.25 187.5 31.25zm-15.625 125v-46.875c0-8.594 7.031-15.625 15.625-15.625 8.594 0 15.625 7.031 15.625 15.625v46.875h27.969c7.031 0 10.468 8.437 5.468 13.281l-43.593 43.594c-3.125 3.125-7.969 3.125-11.094 0l-43.594-43.594a7.813 7.813 0 015.625-13.281h27.969zM250 265.625H125c-8.594 0-15.625-7.031-15.625-15.625 0-8.594 7.031-15.625 15.625-15.625h125c8.594 0 15.625 7.031 15.625 15.625 0 8.594-7.031 15.625-15.625 15.625z"/></symbol><symbol viewBox="0 0 16 17" id="download-2" xmlns="http://www.w3.org/2000/svg"><g clip-path="url(#cclip0)"><path fill-rule="evenodd" clip-rule="evenodd" d="M2.526 14.816h11.79a.842.842 0 110 1.684H2.526a.842.842 0 110-1.684zM9.263 9.91l2.731-2.73 1.19 1.19-4.763 4.764L3.657 8.37l1.19-1.19L7.58 9.91V.5h1.684v9.41z"/></g><defs><clipPath id="cclip0"><path transform="translate(0 .5)" d="M0 0h16v16H0z"/></clipPath></defs></symbol><symbol viewBox="0 0 30 30" id="symbol" xmlns="http://www.w3.org/2000/svg"><path d="M25.39 3.95l-5.772 3.253V4.548c0-2.472-2.02-4.535-4.553-4.549H15c-1.558 0-3.117.232-4.603.683v6.514L8.037 5.88C5.852 4.647 3.01 5.316 1.733 7.45A14.804 14.804 0 000 11.753l5.772 3.254-2.345 1.317c-2.2 1.24-3.016 3.993-1.753 6.14a15.068 15.068 0 002.944 3.585l5.772-3.253v2.655c0 2.472 2.02 4.535 4.56 4.549h.057c1.566 0 3.117-.232 4.61-.69v-6.507l2.353 1.324c2.186 1.232 5.029.563 6.306-1.57A14.588 14.588 0 0030 18.252l-5.772-3.254 2.352-1.324c2.2-1.24 3.016-3.993 1.746-6.14A15.073 15.073 0 0025.39 3.95z"/></symbol></svg>