<svg width="168" height="49" viewBox="0 0 168 49" fill="none" xmlns="http://www.w3.org/2000/svg">
<path d="M7.2576 48.5H0V14.6779H7.2576V17.3359C8.06323 16.245 9.12304 15.3646 10.3461 14.7703C11.5692 14.176 12.9191 13.8855 14.28 13.9236C18.312 13.9236 20.832 15.6799 22.2432 17.0826C24.2592 19.0866 25.62 22.1426 25.62 25.7998C25.62 29.6574 24.2592 32.5631 22.0416 34.7702C19.824 36.9773 17.4048 37.7761 14.4312 37.7761C9.9512 37.7761 8.0276 35.5189 7.2716 34.4668L7.2576 48.5ZM8.4672 21.7808C7.38538 22.881 6.77167 24.3533 6.7536 25.8916C6.7642 27.367 7.34108 28.7826 8.3664 29.8494C9.4678 30.9329 10.9524 31.5444 12.502 31.5528C13.9456 31.5366 15.3306 30.9824 16.3828 29.9997C17.5059 28.8625 18.1387 27.3349 18.1468 25.7414C18.1427 24.6283 17.8071 23.5414 17.1821 22.6179C16.5572 21.6943 15.6711 20.9754 14.6355 20.552C13.6 20.1286 12.4615 20.0196 11.3636 20.2388C10.2658 20.458 9.25795 20.9955 8.4672 21.7836V21.7808Z" fill="white"/>
<path d="M58.3773 16.5844C59.5635 15.8575 60.8126 15.2371 62.1097 14.7308C63.8161 14.1708 65.6049 13.8989 67.4017 13.9264C68.6113 13.9264 72.7441 14.0266 75.0121 16.2337C76.2721 17.4361 76.6753 18.8389 76.6753 20.3418C76.6753 21.7335 76.4233 22.9971 75.3145 24.1493C74.7761 24.7012 74.1223 25.1287 73.3993 25.4018C74.5303 25.6661 75.5725 26.2186 76.4233 27.0049C77.5433 28.057 77.9353 29.2594 77.9353 30.7122C77.9435 31.5804 77.774 32.4411 77.4371 33.2421C77.1001 34.043 76.6028 34.7675 75.9753 35.3714C74.0601 37.2278 71.4393 37.7789 67.7097 37.7789C65.6125 37.8149 63.5259 37.4755 61.5497 36.7769C60.0876 36.2087 58.7256 35.413 57.5149 34.4195L60.5949 29.6602C61.43 30.3866 62.363 30.9937 63.3669 31.4637C64.473 31.9077 65.6518 32.1454 66.8445 32.1651C67.6509 32.1651 68.7597 32.0148 69.4653 31.6084C69.7766 31.4464 70.0359 31.2009 70.2141 30.8999C70.3922 30.5989 70.482 30.2542 70.4733 29.9051C70.4733 29.1536 70.0701 28.7027 69.4149 28.4021C68.5682 28.1315 67.6835 27.9962 66.7941 28.0013H64.0725V23.1084H66.1389C66.7941 23.1084 68.1549 23.0082 68.8605 22.7076C69.1678 22.5908 69.4328 22.3853 69.6215 22.1174C69.8101 21.8495 69.9137 21.5316 69.9189 21.2046C69.9189 20.8038 69.7173 20.1526 68.7989 19.7518C68.0793 19.4624 67.3067 19.3258 66.5309 19.351C65.5095 19.3337 64.4964 19.535 63.5601 19.941C62.6805 20.2933 61.8637 20.7838 61.1409 21.3939L58.3773 16.5844Z" fill="white"/>
<path d="M89.5076 0.5V22.8968L97.6752 14.6779H107.195L96.516 24.8006L107.957 37.0246H98.1792L89.4992 27.4029V37.0246H82.25V0.5H89.5076Z" fill="white"/>
<path d="M123.049 14.6779C124.611 14.6779 126.969 14.7308 128.649 16.1335C129.769 17.0854 130.463 18.4882 130.463 20.4921C130.463 21.8448 130.161 23.0471 129.102 24.1103C128.594 24.662 127.952 25.0757 127.238 25.3127C128.454 25.5461 129.586 26.0997 130.514 26.9159C131.673 28.0681 131.975 29.4709 131.975 30.7233C131.975 32.6716 131.27 34.08 130.312 35.0318C129.304 36.0366 127.54 37.0385 124.712 37.0385H110.992V14.689L123.049 14.6779ZM121.24 23.5982C121.875 23.6182 122.503 23.4621 123.054 23.1473C123.311 22.9581 123.515 22.7071 123.647 22.4179C123.78 22.1287 123.836 21.8108 123.81 21.4941C123.824 21.2031 123.772 20.9129 123.658 20.6444C123.545 20.3758 123.373 20.1356 123.155 19.941C122.702 19.5903 121.755 19.4901 121.139 19.4901H118.261V23.5982H121.24ZM121.542 32.2263C122.147 32.2263 123.054 32.2263 123.71 31.6251C123.943 31.3977 124.127 31.1243 124.248 30.8224C124.37 30.5204 124.427 30.1966 124.415 29.8717C124.421 29.577 124.36 29.2848 124.238 29.0162C124.116 28.7475 123.936 28.5093 123.71 28.3186C123.004 27.7174 121.895 27.7174 121.24 27.7174H118.261V32.2263H121.542Z" fill="white"/>
<path d="M140.014 0.95091C140.851 0.95091 141.67 1.19771 142.366 1.66013C143.062 2.12254 143.605 2.77978 143.925 3.54874C144.246 4.31771 144.33 5.16386 144.166 5.98018C144.003 6.79651 143.6 7.54635 143.008 8.13489C142.416 8.72343 141.661 9.12423 140.84 9.28661C140.019 9.44898 139.167 9.36565 138.394 9.04713C137.62 8.72862 136.959 8.18923 136.494 7.49718C136.029 6.80513 135.78 5.99151 135.78 5.15919C135.776 4.60531 135.882 4.05608 136.094 3.54349C136.305 3.03091 136.616 2.56523 137.01 2.17357C137.404 1.78191 137.873 1.47209 138.389 1.26218C138.904 1.05227 139.457 0.946461 140.014 0.95091ZM143.654 14.6779V37.0247H136.385V14.6751L143.654 14.6779Z" fill="white"/>
<path d="M161.952 20.4921V37.0246H154.692V20.4921H148.644V14.6779H168V20.4921H161.952Z" fill="white"/>
<path d="M50.3496 17.0659L45.8388 19.6543V17.5418C45.8463 16.5939 45.4764 15.6815 44.8097 15.0036C44.1429 14.3258 43.2336 13.9375 42.28 13.9236H42.2268C41.0097 13.9271 39.8003 14.1148 38.64 14.4803V19.6599L36.8004 18.6051C35.9805 18.1259 35.0036 17.9878 34.0818 18.2208C33.1601 18.4537 32.3681 19.0389 31.878 19.8492C31.2502 20.9108 30.7921 22.0628 30.52 23.2642L35.0308 25.8526L33.1912 26.9075C32.3618 27.3777 31.7531 28.1547 31.4976 29.0692C31.2422 29.9836 31.3608 30.9614 31.8276 31.7893C32.441 32.8503 33.2143 33.8115 34.1208 34.6394L38.6316 32.0509V34.1607C38.6249 35.1079 38.9947 36.0195 39.6606 36.6971C40.3266 37.3747 41.2348 37.7635 42.1876 37.7789H42.2324C43.4533 37.7775 44.6668 37.5898 45.8304 37.2222V32.0509L47.67 33.1058C48.4905 33.5843 49.4677 33.7221 50.3897 33.4892C51.3117 33.2563 52.1041 32.6715 52.5952 31.8617C53.2202 30.798 53.6746 29.6439 53.942 28.4411L49.4312 25.8526L51.2708 24.7978C52.1006 24.328 52.7101 23.5514 52.9665 22.6371C53.223 21.7227 53.1056 20.7447 52.64 19.916C52.0268 18.8557 51.2544 17.8946 50.3496 17.0659Z" fill="#00E5B9"/>
</svg>
