<svg width="2225" height="2163" viewBox="0 0 2225 2163" fill="none" xmlns="http://www.w3.org/2000/svg">
<path d="M917.774 853.54L895.401 892.286L886.274 876.479C877.777 861.761 858.938 856.256 844.166 864.673L843.789 864.891C834.728 870.122 826.508 876.713 819.399 884.451L841.792 923.238L823.566 923.25C806.577 923.274 792.392 936.775 792.302 953.767C792.246 964.422 793.877 974.998 797.069 985.175L841.745 985.155L832.621 1000.93C824.088 1015.7 828.814 1034.83 843.58 1043.36C852.728 1048.64 862.639 1052.54 872.975 1054.84L895.349 1016.1L904.475 1031.9C912.973 1046.62 931.811 1052.13 946.583 1043.71L946.919 1043.52C956.021 1038.26 964.241 1031.67 971.351 1023.93L948.957 985.146L967.184 985.134C984.13 985.133 998.358 971.608 998.447 954.616C998.504 943.961 996.914 933.362 993.681 923.208L948.963 923.253L958.086 907.475C966.62 892.708 961.894 873.576 947.169 865.026C937.997 859.699 928.087 855.804 917.774 853.54Z" fill="white"/>
<path d="M720.94 915.411L698.566 954.158L689.439 938.35C680.942 923.632 662.103 918.128 647.332 926.544L646.954 926.762C637.893 931.994 629.674 938.584 622.564 946.323L644.957 985.109L626.707 985.079C609.718 985.104 595.533 998.605 595.443 1015.6C595.387 1026.25 596.976 1036.85 600.209 1047L644.952 1047L635.828 1062.78C627.295 1077.55 632.021 1096.68 646.745 1105.23C655.917 1110.56 665.804 1114.41 676.14 1116.72L698.514 1077.97L707.64 1093.78C716.138 1108.49 734.976 1114 749.79 1105.56L750.126 1105.36C759.228 1100.11 767.49 1093.49 774.558 1085.78L752.164 1046.99L770.391 1046.98C787.379 1046.96 801.565 1033.46 801.678 1016.51C801.735 1005.85 800.146 995.251 796.954 985.073L752.212 985.076L761.335 969.298C769.827 954.555 765.101 935.424 750.376 926.873C741.204 921.546 731.276 917.718 720.94 915.411Z" fill="white"/>
<path d="M523.46 976.65L501.086 1015.4L491.959 999.589C483.462 984.871 464.624 979.366 449.852 987.783L449.474 988.001C440.413 993.232 432.194 999.823 425.084 1007.56L447.477 1046.35L429.227 1046.32C412.238 1046.34 398.053 1059.84 397.963 1076.84C397.907 1087.49 399.496 1098.09 402.729 1108.24L447.472 1108.24L438.348 1124.02C429.815 1138.79 434.541 1157.92 449.265 1166.47C458.437 1171.8 468.324 1175.65 478.66 1177.95L501.034 1139.21L510.16 1155.02C518.658 1169.73 537.496 1175.24 552.31 1166.8L552.646 1166.6C561.748 1161.35 570.01 1154.73 577.078 1147.02L554.684 1108.23L572.911 1108.22C589.899 1108.2 604.085 1094.69 604.198 1077.74C604.255 1067.09 602.666 1056.49 599.474 1046.31L554.732 1046.31L563.855 1030.54C572.347 1015.79 567.621 996.663 552.896 988.112C543.724 982.785 533.796 978.957 523.46 976.65Z" fill="white"/>
<path d="M371.721 837.829L349.347 876.576L340.221 860.768C331.723 846.05 312.885 840.545 298.113 848.962L297.735 849.18C288.675 854.411 280.455 861.002 273.345 868.741L295.738 907.527L277.488 907.497C260.499 907.521 246.314 921.023 246.225 938.014C246.168 948.67 247.757 959.269 250.991 969.422L295.733 969.42L286.61 985.198C278.076 999.965 282.802 1019.1 297.526 1027.65C306.698 1032.97 316.585 1036.83 326.921 1039.13L349.295 1000.39L358.422 1016.19C366.919 1030.91 385.757 1036.42 400.571 1027.98L400.907 1027.78C410.01 1022.53 418.271 1015.91 425.339 1008.2L402.946 969.411L421.172 969.399C438.16 969.374 452.346 955.873 452.46 938.923C452.516 928.268 450.927 917.669 447.735 907.491L402.993 907.493L412.116 891.715C420.608 876.973 415.882 857.841 401.158 849.291C391.986 843.964 382.057 840.135 371.721 837.829Z" fill="white"/>
<path d="M1311.26 729.677L1288.89 768.424L1279.76 752.616C1271.27 737.898 1252.43 732.393 1237.66 740.81L1237.28 741.028C1228.22 746.259 1220 752.85 1212.89 760.589L1235.28 799.375L1217.06 799.387C1200.11 799.387 1185.88 812.913 1185.79 829.904C1185.74 840.559 1187.32 851.159 1190.56 861.312L1235.3 861.31L1226.18 877.088C1217.64 891.854 1222.34 910.944 1237.09 919.537C1246.27 924.864 1256.15 928.716 1266.49 931.023L1288.86 892.276L1297.99 908.084C1306.49 922.802 1325.32 928.306 1340.14 919.865L1340.47 919.672C1349.58 914.416 1357.8 907.826 1364.91 900.087L1342.51 861.301L1360.74 861.288C1377.69 861.288 1391.91 847.763 1392 830.771C1392.06 820.116 1390.47 809.516 1387.26 799.405L1342.52 799.408L1351.64 783.629C1360.17 768.863 1355.45 749.731 1340.72 741.18C1331.49 735.836 1321.6 731.983 1311.26 729.677Z" fill="white"/>
<path d="M1507.88 667.709L1485.5 706.456L1476.38 690.648C1467.88 675.93 1449.04 670.425 1434.27 678.842L1433.89 679.06C1424.83 684.291 1416.61 690.882 1409.5 698.621L1431.89 737.407L1413.67 737.419C1396.72 737.419 1382.49 750.945 1382.4 767.936C1382.35 778.591 1383.94 789.191 1387.17 799.344L1431.91 799.342L1422.79 815.12C1414.26 829.886 1418.96 848.976 1433.71 857.569C1442.88 862.896 1452.76 866.748 1463.1 869.055L1485.47 830.308L1494.6 846.116C1503.1 860.834 1521.94 866.338 1536.75 857.897L1537.09 857.704C1546.19 852.448 1554.41 845.857 1561.52 838.119L1539.13 799.333L1557.35 799.32C1574.3 799.32 1588.53 785.795 1588.62 768.803C1588.67 758.148 1587.08 747.548 1583.87 737.437L1539.13 737.439L1548.25 721.661C1556.79 706.895 1552.06 687.763 1537.34 679.212C1528.1 673.868 1518.21 670.015 1507.88 667.709Z" fill="white"/>
<path d="M1553.09 466.054L1530.72 504.801L1521.59 488.993C1513.09 474.275 1494.25 468.77 1479.48 477.187L1479.1 477.405C1470.04 482.636 1461.82 489.227 1454.71 496.966L1477.11 535.752L1458.88 535.764C1441.93 535.764 1427.71 549.29 1427.62 566.282C1427.56 576.937 1429.15 587.536 1432.38 597.69L1477.13 597.687L1468 613.465C1459.47 628.232 1464.17 647.321 1478.92 655.914C1488.09 661.241 1497.98 665.093 1508.31 667.4L1530.69 628.653L1539.81 644.461C1548.31 659.179 1567.15 664.684 1581.96 656.243L1582.3 656.049C1591.4 650.793 1599.62 644.203 1606.73 636.464L1584.34 597.678L1602.56 597.666C1619.51 597.665 1633.74 584.14 1633.83 567.148C1633.88 556.493 1632.29 545.894 1629.09 535.782L1584.34 535.785L1593.47 520.007C1602 505.24 1597.27 486.108 1582.55 477.558C1573.31 472.213 1563.43 468.361 1553.09 466.054Z" fill="white"/>
<path d="M1114.47 791.525L1092.1 830.271L1082.97 814.463C1074.47 799.746 1055.64 794.241 1040.86 802.658L1040.49 802.876C1031.42 808.107 1023.16 814.722 1016.07 822.394L1038.46 861.181L1020.22 861.259C1003.27 861.259 989.047 874.785 988.957 891.776C988.901 902.431 990.49 913.031 993.681 923.209L1038.42 923.206L1029.32 938.918C1020.78 953.685 1025.51 972.816 1040.23 981.367C1049.38 986.652 1059.29 990.546 1069.67 992.829L1092.05 954.082L1101.17 969.89C1109.67 984.608 1128.51 990.112 1143.32 981.671L1143.66 981.477C1152.76 976.222 1160.98 969.631 1168.09 961.893L1145.72 923.148L1163.95 923.136C1180.89 923.136 1195.12 909.611 1195.21 892.619C1195.27 881.964 1193.68 871.364 1190.44 861.211L1145.7 861.213L1154.82 845.435C1163.36 830.669 1158.63 811.537 1143.87 803.011C1134.69 797.684 1124.81 793.831 1114.47 791.525Z" fill="white"/>
<path d="M1159.27 590.22L1136.9 628.967L1127.77 613.159C1119.27 598.441 1100.43 592.936 1085.66 601.353L1085.28 601.571C1076.22 606.802 1067.96 613.417 1060.87 621.09L1083.26 659.876L1065.02 659.954C1048.07 659.954 1033.85 673.48 1033.76 690.472C1033.7 701.127 1035.29 711.726 1038.48 721.904L1083.22 721.901L1074.12 737.613C1065.58 752.38 1070.31 771.512 1085.03 780.062C1094.18 785.347 1104.09 789.242 1114.47 791.524L1136.84 752.777L1145.97 768.585C1154.47 783.303 1173.31 788.808 1188.12 780.367L1188.46 780.173C1197.56 774.917 1205.78 768.327 1212.89 760.588L1190.52 721.844L1208.75 721.832C1225.69 721.831 1239.92 708.306 1240.01 691.314C1240.07 680.659 1238.48 670.06 1235.24 659.906L1190.5 659.909L1199.62 644.131C1208.16 629.364 1203.43 610.232 1188.67 601.706C1179.49 596.379 1169.61 592.527 1159.27 590.22Z" fill="white"/>
<path d="M1007.4 450.69L985.029 489.437L975.902 473.629C967.405 458.911 948.566 453.407 933.794 461.824L933.417 462.041C924.356 467.273 916.094 473.888 909.003 481.56L931.396 520.346L913.152 520.425C896.205 520.425 881.978 533.95 881.888 550.942C881.832 561.597 883.421 572.197 886.613 582.374L931.355 582.372L922.249 598.084C913.716 612.85 918.442 631.982 933.166 640.533C942.314 645.818 952.225 649.712 962.603 651.994L984.976 613.248L994.103 629.056C1002.6 643.773 1021.44 649.278 1036.25 640.837L1036.59 640.643C1045.69 635.388 1053.91 628.797 1061.02 621.058L1038.65 582.314L1056.88 582.302C1073.82 582.302 1088.05 568.776 1088.14 551.785C1088.2 541.129 1086.61 530.53 1083.37 520.377L1038.63 520.379L1047.76 504.601C1056.29 489.835 1051.56 470.703 1036.8 462.176C1027.63 456.849 1017.74 452.997 1007.4 450.69Z" fill="white"/>
<path d="M962.61 652.103L940.236 690.849L931.11 675.041C922.612 660.324 903.774 654.819 889.002 663.236L888.624 663.454C879.564 668.685 871.302 675.3 864.21 682.972L886.603 721.758L868.359 721.837C851.413 721.837 837.185 735.363 837.096 752.354C837.039 763.009 838.629 773.609 841.82 783.786L886.563 783.784L877.457 799.496C868.923 814.262 873.649 833.394 888.374 841.945C897.521 847.23 907.432 851.124 917.81 853.407L940.184 814.66L949.311 830.468C957.808 845.186 976.646 850.69 991.46 842.249L991.796 842.055C1000.9 836.8 1009.12 830.209 1016.23 822.471L993.859 783.726L1012.09 783.714C1029.03 783.714 1043.26 770.189 1043.35 753.197C1043.41 742.542 1041.82 731.942 1038.58 721.789L993.84 721.791L1002.96 706.013C1011.5 691.247 1006.77 672.115 992.005 663.588C982.833 658.261 972.946 654.409 962.61 652.103Z" fill="white"/>
<path d="M765.594 713.855L743.22 752.602L734.093 736.794C725.596 722.077 706.758 716.572 691.986 724.989L691.608 725.207C682.548 730.438 674.286 737.053 667.194 744.725L689.587 783.511L671.343 783.59C654.397 783.59 640.169 797.115 640.08 814.107C640.023 824.762 641.613 835.362 644.804 845.539L689.546 845.537L680.441 861.249C671.907 876.015 676.633 895.147 691.357 903.698C700.505 908.983 710.416 912.877 720.794 915.16L743.168 876.413L752.295 892.221C760.792 906.938 779.63 912.443 794.444 904.002L794.78 903.808C803.882 898.553 812.102 891.962 819.212 884.224L796.843 845.479L815.069 845.467C832.016 845.467 846.243 831.941 846.332 814.95C846.389 804.295 844.8 793.695 841.566 783.542L796.824 783.544L805.947 767.766C814.481 753 809.755 733.868 794.989 725.341C785.817 720.014 775.93 716.162 765.594 713.855Z" fill="white"/>
<path d="M613.371 574.196L590.998 612.943L581.871 597.135C573.374 582.417 554.535 576.913 539.763 585.329L539.386 585.547C530.325 590.779 522.063 597.393 514.971 605.066L537.365 643.852L519.121 643.931C502.174 643.931 487.947 657.456 487.857 674.448C487.801 685.103 489.39 695.703 492.581 705.88L537.324 705.878L528.218 721.59C519.685 736.356 524.41 755.488 539.135 764.039C548.283 769.324 558.193 773.218 568.572 775.5L590.945 736.754L600.072 752.562C608.569 767.279 627.408 772.784 642.222 764.343L642.557 764.149C651.66 758.894 659.88 752.303 666.989 744.564L644.62 705.82L662.846 705.808C679.793 705.808 694.02 692.282 694.11 675.29C694.166 664.635 692.577 654.036 689.344 643.882L644.601 643.885L653.725 628.107C662.258 613.34 657.532 594.209 642.766 585.682C633.594 580.355 623.708 576.503 613.371 574.196Z" fill="white"/>
<path d="M810.387 512.443L788.014 551.19L778.887 535.382C770.39 520.664 751.551 515.16 736.779 523.576L736.402 523.794C727.341 529.026 719.079 535.641 711.987 543.313L734.381 582.099L716.137 582.178C699.19 582.178 684.963 595.703 684.873 612.695C684.817 623.35 686.406 633.95 689.597 644.127L734.34 644.125L725.234 659.837C716.701 674.603 721.426 693.735 736.151 702.286C745.299 707.571 755.209 711.465 765.588 713.747L787.961 675.001L797.088 690.809C805.585 705.526 824.424 711.031 839.238 702.59L839.573 702.396C848.676 697.141 856.896 690.55 864.005 682.811L841.636 644.067L859.862 644.055C876.809 644.055 891.037 630.529 891.126 613.538C891.182 602.882 889.593 592.283 886.36 582.129L841.617 582.132L850.741 566.354C859.274 551.587 854.549 532.456 839.782 523.929C830.61 518.602 820.724 514.75 810.387 512.443Z" fill="white"/>
<path d="M568.336 775.189L545.962 813.936L536.836 798.128C528.338 783.41 509.5 777.906 494.728 786.323L494.35 786.541C485.29 791.772 477.028 798.387 469.936 806.059L492.329 844.845L474.085 844.924C457.139 844.924 442.911 858.449 442.822 875.441C442.765 886.096 444.355 896.696 447.546 906.873L492.289 906.871L483.183 922.583C474.65 937.349 479.375 956.481 494.1 965.032C503.247 970.317 513.158 974.211 523.537 976.493L545.91 937.747L555.037 953.555C563.534 968.272 582.373 973.777 597.186 965.336L597.522 965.142C606.625 959.887 614.844 953.296 621.954 945.557L599.585 906.813L617.811 906.801C634.758 906.801 648.985 893.275 649.075 876.284C649.131 865.629 647.542 855.029 644.309 844.876L599.566 844.878L608.69 829.1C617.223 814.334 612.497 795.202 597.731 786.675C588.559 781.348 578.672 777.496 568.336 775.189Z" fill="white"/>
<path d="M416.234 635.74L393.861 674.487L384.734 658.679C376.237 643.961 357.398 638.456 342.626 646.873L342.249 647.091C333.188 652.322 324.926 658.937 317.835 666.61L340.228 705.396L321.984 705.474C305.037 705.474 290.81 719 290.72 735.991C290.664 746.647 292.253 757.246 295.445 767.424L340.187 767.421L331.081 783.133C322.548 797.9 327.274 817.031 341.998 825.582C351.146 830.867 361.057 834.761 371.435 837.044L393.808 798.297L402.935 814.105C411.432 828.823 430.271 834.327 445.085 825.886L445.42 825.693C454.523 820.437 462.743 813.847 469.852 806.108L447.483 767.364L465.71 767.351C482.656 767.351 496.884 753.826 496.973 736.834C497.03 726.179 495.44 715.579 492.207 705.426L447.464 705.429L456.588 689.65C465.121 674.884 460.396 655.752 445.629 647.226C436.457 641.899 426.571 638.046 416.234 635.74Z" fill="white"/>
<path d="M1356.44 528.154L1333.96 566.961L1324.84 551.153C1316.34 536.435 1297.46 530.952 1282.64 539.395L1282.27 539.614C1273.18 544.861 1264.89 551.493 1257.77 559.181L1280.16 597.967L1261.87 598.07C1244.89 598.093 1230.61 611.649 1230.5 628.654C1230.43 639.317 1232 649.923 1235.19 660.104L1280.04 660.041L1270.89 675.778C1262.31 690.567 1267.03 709.707 1281.77 718.245C1290.94 723.522 1300.86 727.406 1311.26 729.676L1333.74 690.868L1342.87 706.676C1351.37 721.394 1370.24 726.878 1385.1 718.41L1385.44 718.215C1394.57 712.944 1402.82 706.337 1409.95 698.582L1387.58 659.838L1405.85 659.801C1422.84 659.778 1437.12 646.223 1437.23 629.218C1437.3 618.554 1435.72 607.948 1432.5 597.792L1387.65 597.855L1396.82 582.052C1405.39 567.262 1400.68 548.122 1385.89 539.609C1376.7 534.29 1366.8 530.448 1356.44 528.154Z" fill="white"/>
<path d="M1401.65 326.5L1379.17 365.307L1370.05 349.499C1361.55 334.781 1342.68 329.298 1327.86 337.741L1327.48 337.96C1318.39 343.207 1310.1 349.839 1302.98 357.527L1325.37 396.313L1307.09 396.416C1290.1 396.439 1275.82 409.994 1275.71 427C1275.64 437.663 1277.22 448.269 1280.4 458.45L1325.25 458.387L1316.1 474.123C1307.53 488.913 1312.24 508.053 1326.99 516.591C1336.15 521.868 1346.08 525.751 1356.48 528.022L1378.95 489.214L1388.08 505.022C1396.58 519.74 1415.45 525.223 1430.31 516.756L1430.65 516.561C1439.78 511.29 1448.03 504.683 1455.17 496.928L1432.8 458.184L1451.07 458.147C1468.05 458.124 1482.33 444.569 1482.44 427.563C1482.52 416.9 1480.94 406.294 1477.71 396.137L1432.86 396.201L1442.03 380.398C1450.6 365.608 1445.89 346.468 1431.1 337.955C1421.92 332.636 1412.01 328.794 1401.65 326.5Z" fill="white"/>
<path d="M1446.87 124.846L1424.39 163.654L1415.26 147.846C1406.76 133.128 1387.89 127.644 1373.07 136.088L1372.69 136.306C1363.6 141.554 1355.31 148.185 1348.19 155.873L1370.59 194.66L1352.3 194.763C1335.31 194.786 1321.03 208.341 1320.92 225.346C1320.85 236.01 1322.43 246.615 1325.61 256.797L1370.46 256.733L1361.31 272.47C1352.74 287.26 1357.45 306.4 1372.2 314.937C1381.36 320.214 1391.29 324.098 1401.69 326.368L1424.17 287.561L1433.29 303.369C1441.79 318.087 1460.67 323.57 1475.53 315.102L1475.86 314.908C1484.99 309.636 1493.24 303.029 1500.38 295.275L1478.01 256.531L1496.28 256.494C1513.26 256.471 1527.54 242.915 1527.66 225.91C1527.73 215.247 1526.15 204.641 1522.92 194.484L1478.07 194.547L1487.24 178.744C1495.81 163.955 1491.1 144.815 1476.31 136.301C1467.13 130.983 1457.22 127.141 1446.87 124.846Z" fill="white"/>
<path d="M1204.46 388.914L1181.98 427.721L1172.86 411.913C1164.36 397.195 1145.48 391.712 1130.66 400.155L1130.29 400.374C1121.2 405.621 1112.91 412.253 1105.79 419.941L1128.18 458.727L1109.89 458.83C1092.91 458.853 1078.63 472.408 1078.52 489.414C1078.45 500.077 1080.02 510.683 1083.21 520.864L1128.06 520.801L1118.91 536.537C1110.33 551.327 1115.05 570.467 1129.79 579.005C1138.96 584.282 1148.88 588.165 1159.28 590.436L1181.76 551.628L1190.89 567.436C1199.39 582.154 1218.26 587.637 1233.12 579.17L1233.46 578.975C1242.59 573.704 1250.84 567.097 1257.97 559.342L1235.6 520.598L1253.87 520.561C1270.86 520.538 1285.14 506.983 1285.25 489.978C1285.32 479.314 1283.74 468.708 1280.52 458.551L1235.67 458.615L1244.84 442.812C1253.41 428.022 1248.7 408.882 1233.91 400.369C1224.72 395.05 1214.82 391.208 1204.46 388.914Z" fill="white"/>
<path d="M1249.67 187.259L1227.19 226.067L1218.07 210.259C1209.57 195.541 1190.69 190.058 1175.88 198.501L1175.5 198.72C1166.41 203.967 1158.12 210.598 1151 218.287L1173.39 257.073L1155.11 257.176C1138.12 257.199 1123.84 270.754 1123.73 287.759C1123.66 298.423 1125.24 309.029 1128.42 319.21L1173.27 319.147L1164.12 334.883C1155.55 349.673 1160.26 368.813 1175.01 377.351C1184.17 382.627 1194.1 386.511 1204.5 388.781L1226.97 349.974L1236.1 365.782C1244.6 380.5 1263.47 385.983 1278.33 377.516L1278.67 377.321C1287.8 372.049 1296.05 365.442 1303.19 357.688L1280.82 318.944L1299.09 318.907C1316.07 318.884 1330.35 305.328 1330.46 288.323C1330.53 277.66 1328.96 267.054 1325.73 256.897L1280.88 256.96L1290.05 241.158C1298.62 226.368 1293.91 207.228 1279.12 198.715C1269.93 193.396 1260.03 189.554 1249.67 187.259Z" fill="white"/>
<path d="M872.934 1054.87L850.56 1093.61L841.433 1077.81C832.936 1063.09 814.098 1057.58 799.326 1066L798.948 1066.22C789.887 1071.45 781.626 1078.06 774.558 1085.78L796.951 1124.56L778.701 1124.54C761.754 1124.54 747.527 1138.06 747.437 1155.05C747.381 1165.71 748.97 1176.31 752.162 1186.48L796.904 1186.48L787.78 1202.26C779.247 1217.03 783.973 1236.16 798.697 1244.71C807.869 1250.04 817.798 1253.86 828.176 1256.15L850.55 1217.4L859.676 1233.21C868.174 1247.93 887.036 1253.47 901.826 1244.99L902.162 1244.8C911.264 1239.54 919.484 1232.95 926.594 1225.21L904.2 1186.42L922.427 1186.41C939.415 1186.39 953.601 1172.89 953.69 1155.9C953.747 1145.24 952.115 1134.66 948.948 1124.53L904.206 1124.53L913.329 1108.75C921.863 1093.99 917.161 1074.9 902.412 1066.3C893.199 1061 883.288 1057.11 872.934 1054.87Z" fill="white"/>
<path d="M675.966 1116.7L653.593 1155.45L644.466 1139.64C635.969 1124.93 617.13 1119.42 602.358 1127.84L601.981 1128.06C592.92 1133.29 584.658 1139.9 577.591 1147.62L599.984 1186.4L581.734 1186.37C564.787 1186.37 550.56 1199.9 550.47 1216.89C550.414 1227.54 552.003 1238.14 555.194 1248.32L599.937 1248.32L590.813 1264.1C582.28 1278.86 587.006 1298 601.73 1306.55C610.902 1311.87 620.83 1315.7 631.209 1317.98L653.582 1279.24L662.709 1295.05C671.206 1309.76 690.069 1315.31 704.859 1306.83L705.194 1306.63C714.297 1301.38 722.517 1294.79 729.626 1287.05L707.233 1248.26L725.459 1248.25C742.448 1248.23 756.633 1234.72 756.723 1217.73C756.779 1207.08 755.148 1196.5 751.981 1186.37L707.238 1186.37L716.362 1170.59C724.895 1155.82 720.194 1136.73 705.445 1128.14C696.231 1122.84 686.321 1118.94 675.966 1116.7Z" fill="white"/>
<path d="M478.95 1178.46L456.577 1217.2L447.45 1201.4C438.953 1186.68 420.114 1181.17 405.342 1189.59L404.965 1189.81C395.904 1195.04 387.642 1201.65 380.575 1209.37L402.968 1248.15L384.718 1248.13C367.771 1248.13 353.543 1261.65 353.454 1278.64C353.398 1289.3 354.987 1299.9 358.178 1310.07L402.921 1310.07L393.797 1325.85C385.264 1340.62 389.989 1359.75 404.714 1368.3C413.886 1373.63 423.814 1377.45 434.193 1379.74L456.566 1340.99L465.693 1356.8C474.19 1371.52 493.053 1377.06 507.843 1368.58L508.178 1368.39C517.281 1363.13 525.501 1356.54 532.61 1348.8L510.217 1310.01L528.443 1310C545.432 1309.98 559.617 1296.48 559.707 1279.49C559.763 1268.83 558.132 1258.25 554.965 1248.12L510.222 1248.12L519.346 1232.34C527.879 1217.58 523.178 1198.49 508.429 1189.89C499.215 1184.59 489.304 1180.7 478.95 1178.46Z" fill="white"/>
<path d="M630.931 1317.7L608.558 1356.44L599.431 1340.64C590.934 1325.92 572.095 1320.41 557.323 1328.83L556.946 1329.05C547.885 1334.28 539.623 1340.89 532.556 1348.61L554.949 1387.4L536.698 1387.37C519.752 1387.37 505.524 1400.89 505.435 1417.88C505.378 1428.54 506.968 1439.14 510.159 1449.32L554.902 1449.31L545.778 1465.09C537.245 1479.86 541.97 1498.99 556.695 1507.54C565.867 1512.87 575.795 1516.69 586.174 1518.98L608.547 1480.23L617.674 1496.04C626.171 1510.76 645.034 1516.3 659.824 1507.82L660.159 1507.63C669.262 1502.37 677.482 1495.78 684.591 1488.04L662.198 1449.25L680.424 1449.24C697.413 1449.22 711.598 1435.72 711.688 1418.73C711.744 1408.07 710.113 1397.49 706.946 1387.36L662.203 1387.36L671.327 1371.58C679.86 1356.82 675.159 1337.73 660.41 1329.13C651.196 1323.83 641.285 1319.94 630.931 1317.7Z" fill="white"/>
<path d="M827.947 1255.94L805.574 1294.69L796.447 1278.88C787.95 1264.17 769.111 1258.66 754.339 1267.08L753.962 1267.3C744.901 1272.53 736.639 1279.14 729.572 1286.86L751.965 1325.64L733.715 1325.61C716.768 1325.61 702.54 1339.14 702.451 1356.13C702.395 1366.79 703.984 1377.38 707.175 1387.56L751.918 1387.56L742.794 1403.34C734.261 1418.1 738.987 1437.24 753.711 1445.79C762.883 1451.11 772.811 1454.94 783.19 1457.22L805.563 1418.48L814.69 1434.29C823.187 1449 842.05 1454.55 856.84 1446.07L857.175 1445.87C866.278 1440.62 874.498 1434.03 881.607 1426.29L859.214 1387.5L877.44 1387.49C894.429 1387.47 908.614 1373.96 908.704 1356.97C908.76 1346.32 907.129 1335.74 903.962 1325.61L859.219 1325.61L868.343 1309.83C876.876 1295.06 872.175 1275.97 857.426 1267.38C848.212 1262.08 838.301 1258.18 827.947 1255.94Z" fill="white"/>
<path d="M783.154 1457.36L760.78 1496.1L751.654 1480.3C743.156 1465.58 724.318 1460.07 709.546 1468.49L709.168 1468.71C700.108 1473.94 691.846 1480.55 684.778 1488.27L707.171 1527.05L688.921 1527.02C671.974 1527.02 657.747 1540.55 657.658 1557.54C657.601 1568.2 659.19 1578.8 662.382 1588.97L707.124 1588.97L698.001 1604.75C689.467 1619.52 694.193 1638.65 708.918 1647.2C718.089 1652.53 728.018 1656.35 738.396 1658.64L760.77 1619.89L769.897 1635.7C778.394 1650.42 797.257 1655.96 812.046 1647.48L812.382 1647.29C821.484 1642.03 829.704 1635.44 836.814 1627.7L814.421 1588.91L832.647 1588.9C849.635 1588.88 863.821 1575.38 863.91 1558.38C863.967 1547.73 862.336 1537.15 859.168 1527.02L814.426 1527.02L823.549 1511.24C832.083 1496.48 827.381 1477.39 812.633 1468.79C803.419 1463.49 793.508 1459.6 783.154 1457.36Z" fill="white"/>
<path d="M586.381 1519.53L564.007 1558.28L554.881 1542.47C546.383 1527.75 527.545 1522.24 512.773 1530.66L512.395 1530.88C503.335 1536.11 495.073 1542.73 488.005 1550.44L510.399 1589.23L492.148 1589.2C475.202 1589.2 460.974 1602.72 460.885 1619.71C460.828 1630.37 462.417 1640.97 465.609 1651.15L510.351 1651.14L501.228 1666.92C492.695 1681.69 497.42 1700.82 512.145 1709.37C521.317 1714.7 531.245 1718.53 541.623 1720.81L563.997 1682.06L573.124 1697.87C581.621 1712.59 600.484 1718.13 615.273 1709.65L615.609 1709.46C624.712 1704.2 632.931 1697.61 640.041 1689.87L617.648 1651.09L635.874 1651.07C652.862 1651.05 667.048 1637.55 667.137 1620.56C667.194 1609.9 665.563 1599.33 662.395 1589.19L617.653 1589.19L626.777 1573.41C635.31 1558.65 630.608 1539.56 615.86 1530.97C606.646 1525.66 596.735 1521.77 586.381 1519.53Z" fill="white"/>
<path d="M1069.72 992.912L1047.35 1031.66L1038.22 1015.85C1029.72 1001.13 1010.88 995.629 996.112 1004.05L995.734 1004.26C986.674 1009.49 978.412 1016.11 971.344 1023.82L993.737 1062.61L975.487 1062.58C958.499 1062.6 944.313 1076.11 944.224 1093.1C944.167 1103.75 945.756 1114.35 948.99 1124.51L993.732 1124.5L984.567 1140.31C976.033 1155.07 980.759 1174.2 995.525 1182.73C1004.7 1188.06 1014.58 1191.91 1024.92 1194.22L1047.29 1155.47L1056.42 1171.28C1064.92 1186 1083.78 1191.54 1098.53 1183.08L1098.86 1182.89C1107.97 1177.63 1116.19 1171.04 1123.3 1163.3L1100.9 1124.52L1119.13 1124.51C1136.08 1124.51 1150.3 1110.98 1150.39 1093.99C1150.45 1083.33 1148.86 1072.73 1145.63 1062.58L1100.88 1062.58L1110.01 1046.81C1118.54 1032.04 1113.84 1012.95 1099.09 1004.36C1089.94 999.071 1080.03 995.177 1069.72 992.912Z" fill="white"/>
<path d="M1024.9 1194.28L1002.53 1233.03L993.403 1217.22C984.906 1202.5 966.067 1197 951.295 1205.42L950.918 1205.63C941.857 1210.86 933.637 1217.46 926.528 1225.19L948.921 1263.98L930.653 1264.02C913.706 1264.02 899.479 1277.54 899.389 1294.53C899.333 1305.19 900.922 1315.79 904.156 1325.94L948.898 1325.94L939.774 1341.72C931.259 1356.42 935.985 1375.55 950.709 1384.1C959.857 1389.39 969.809 1393.26 980.146 1395.56L1002.52 1356.82L1011.65 1372.62C1020.14 1387.34 1039.01 1392.89 1053.8 1384.4L1054.13 1384.21C1063.23 1378.96 1071.45 1372.36 1078.56 1364.63L1056.17 1325.84L1074.4 1325.83C1091.38 1325.8 1105.57 1312.3 1105.66 1295.31C1105.72 1284.66 1104.13 1274.06 1100.89 1263.9L1056.15 1263.91L1065.27 1248.13C1073.81 1233.36 1069.08 1214.23 1054.32 1205.7C1045.17 1200.42 1035.24 1196.59 1024.9 1194.28Z" fill="white"/>
<path d="M1266.46 930.981L1244.09 969.727L1234.96 953.92C1226.47 939.202 1207.63 933.697 1192.86 942.114L1192.48 942.332C1183.42 947.563 1175.2 954.154 1168.09 961.892L1190.48 1000.68L1172.19 1000.67C1155.24 1000.67 1141.02 1014.2 1140.93 1031.19C1140.87 1041.85 1142.46 1052.45 1145.69 1062.6L1190.43 1062.6L1181.34 1078.42C1172.8 1093.18 1177.53 1112.31 1192.29 1120.84C1201.47 1126.17 1211.35 1130.02 1221.69 1132.33L1244.06 1093.58L1253.19 1109.39C1261.69 1124.11 1280.55 1129.65 1295.34 1121.17L1295.67 1120.98C1304.78 1115.72 1313 1109.13 1320.11 1101.39L1297.71 1062.6L1315.94 1062.59C1332.89 1062.59 1347.11 1049.07 1347.2 1032.07C1347.26 1021.42 1345.67 1010.82 1342.44 1000.67L1297.69 1000.67L1306.82 984.891C1315.35 970.125 1310.65 951.035 1295.86 942.467C1286.69 937.14 1276.76 933.311 1266.46 930.981Z" fill="white"/>
<path d="M1418.43 1070.39L1396.06 1109.14L1386.93 1093.33C1378.44 1078.62 1359.6 1073.11 1344.83 1081.53L1344.45 1081.75C1335.39 1086.98 1327.17 1093.57 1320.06 1101.31L1342.45 1140.09L1324.23 1140.1C1307.28 1140.1 1293.05 1153.63 1292.96 1170.62C1292.91 1181.28 1294.49 1191.88 1297.73 1202.03L1342.47 1202.03L1333.35 1217.81C1324.81 1232.57 1329.54 1251.7 1344.31 1260.23C1353.45 1265.51 1363.36 1269.41 1373.7 1271.72L1396.07 1232.97L1405.2 1248.78C1413.7 1263.49 1432.54 1269 1447.35 1260.56L1447.69 1260.36C1456.79 1255.11 1465.01 1248.52 1472.12 1240.78L1449.72 1201.99L1467.95 1201.98C1484.9 1201.98 1499.12 1188.46 1499.21 1171.46C1499.27 1160.81 1497.68 1150.21 1494.49 1140.03L1449.75 1140.03L1458.87 1124.26C1467.4 1109.49 1462.68 1090.36 1447.91 1081.83C1438.72 1076.57 1428.77 1072.7 1418.43 1070.39Z" fill="white"/>
<path d="M1615.23 1008.55L1592.85 1047.29L1583.73 1031.49C1575.23 1016.77 1556.39 1011.26 1541.62 1019.68L1541.24 1019.9C1532.18 1025.13 1523.96 1031.72 1516.85 1039.46L1539.24 1078.25L1521.02 1078.26C1504.07 1078.26 1489.84 1091.78 1489.76 1108.77C1489.7 1119.43 1491.29 1130.03 1494.52 1140.18L1539.26 1140.18L1530.14 1155.96C1521.61 1170.72 1526.33 1189.86 1541.1 1198.38C1550.25 1203.67 1560.16 1207.56 1570.49 1209.87L1592.87 1171.12L1601.99 1186.93C1610.49 1201.65 1629.33 1207.15 1644.14 1198.71L1644.48 1198.52C1653.58 1193.26 1661.8 1186.67 1668.91 1178.93L1646.52 1140.15L1664.74 1140.13C1681.69 1140.13 1695.92 1126.61 1696.01 1109.62C1696.06 1098.96 1694.47 1088.36 1691.28 1078.19L1646.54 1078.19L1655.66 1062.41C1664.2 1047.64 1659.47 1028.51 1644.71 1019.98C1635.52 1014.72 1625.56 1010.85 1615.23 1008.55Z" fill="white"/>
<path d="M1812.08 946.608L1789.71 985.355L1780.58 969.547C1772.08 954.829 1753.24 949.325 1738.47 957.742L1738.09 957.959C1729.03 963.191 1720.81 969.781 1713.7 977.52L1736.1 1016.31L1717.87 1016.32C1700.92 1016.32 1686.7 1029.84 1686.61 1046.84C1686.55 1057.49 1688.14 1068.09 1691.37 1078.24L1736.12 1078.24L1726.99 1094.02C1718.46 1108.79 1723.19 1127.92 1737.95 1136.44C1747.1 1141.73 1757.01 1145.62 1767.35 1147.93L1789.72 1109.18L1798.85 1124.99C1807.34 1139.71 1826.18 1145.21 1841 1136.77L1841.33 1136.58C1850.43 1131.32 1858.65 1124.73 1865.76 1116.99L1843.37 1078.21L1861.6 1078.2C1878.54 1078.2 1892.77 1064.67 1892.86 1047.68C1892.92 1037.02 1891.33 1026.42 1888.14 1016.25L1843.39 1016.25L1852.52 1000.47C1861.05 985.704 1856.32 966.572 1841.56 958.046C1832.37 952.785 1822.42 948.915 1812.08 946.608Z" fill="white"/>
<path d="M1857.29 744.955L1834.92 783.702L1825.79 767.894C1817.29 753.176 1798.46 747.671 1783.68 756.088L1783.31 756.306C1774.25 761.537 1766.03 768.128 1758.92 775.867L1781.31 814.653L1763.08 814.665C1746.14 814.665 1731.91 828.191 1731.82 845.182C1731.76 855.837 1733.35 866.437 1736.59 876.59L1781.33 876.588L1772.21 892.366C1763.67 907.132 1768.4 926.264 1783.16 934.791C1792.31 940.076 1802.22 943.97 1812.56 946.277L1834.93 907.53L1844.06 923.338C1852.56 938.055 1871.39 943.56 1886.21 935.119L1886.54 934.925C1895.65 929.67 1903.87 923.079 1910.98 915.341L1888.58 876.554L1906.81 876.542C1923.76 876.542 1937.98 863.016 1938.07 846.025C1938.13 835.37 1936.54 824.77 1933.35 814.592L1888.61 814.595L1897.73 798.817C1906.26 784.05 1901.54 764.919 1886.77 756.392C1877.58 751.131 1867.63 747.261 1857.29 744.955Z" fill="white"/>
<path d="M1463.17 869.073L1440.79 907.82L1431.67 892.012C1423.17 877.294 1404.33 871.789 1389.56 880.206L1389.18 880.424C1380.12 885.655 1371.9 892.246 1364.79 899.985L1387.18 938.771L1368.96 938.783C1352.01 938.783 1337.78 952.309 1337.7 969.3C1337.64 979.955 1339.23 990.555 1342.46 1000.71L1387.2 1000.71L1378.08 1016.48C1369.55 1031.25 1374.27 1050.38 1389.04 1058.91C1398.19 1064.19 1408.1 1068.09 1418.43 1070.39L1440.81 1031.65L1449.93 1047.46C1458.43 1062.17 1477.27 1067.68 1492.08 1059.24L1492.42 1059.04C1501.52 1053.79 1509.74 1047.2 1516.85 1039.46L1494.46 1000.67L1512.68 1000.66C1529.63 1000.66 1543.86 987.134 1543.95 970.143C1544 959.488 1542.42 948.888 1539.22 938.711L1494.48 938.713L1503.6 922.935C1512.14 908.168 1507.41 889.037 1492.65 880.51C1483.46 875.249 1473.5 871.379 1463.17 869.073Z" fill="white"/>
<path d="M1659.98 807.159L1637.61 845.905L1628.48 830.097C1619.98 815.38 1601.14 809.875 1586.37 818.292L1585.99 818.51C1576.93 823.741 1568.71 830.332 1561.6 838.07L1584 876.856L1565.77 876.869C1548.82 876.869 1534.6 890.394 1534.51 907.386C1534.45 918.041 1536.04 928.641 1539.27 938.794L1584.02 938.791L1574.89 954.57C1566.36 969.336 1571.08 988.468 1585.85 996.994C1595 1002.28 1604.91 1006.17 1615.25 1008.48L1637.62 969.734L1646.75 985.541C1655.24 1000.26 1674.08 1005.76 1688.9 997.323L1689.23 997.129C1698.33 991.874 1706.55 985.283 1713.66 977.544L1691.27 938.758L1709.5 938.746C1726.44 938.746 1740.67 925.22 1740.76 908.229C1740.82 897.573 1739.23 886.974 1736.03 876.796L1691.29 876.799L1700.42 861.021C1708.95 846.254 1704.22 827.123 1689.46 818.596C1680.27 813.335 1670.31 809.465 1659.98 807.159Z" fill="white"/>
<path d="M1705.19 605.505L1682.82 644.252L1673.69 628.444C1665.19 613.726 1646.35 608.222 1631.58 616.638L1631.2 616.856C1622.14 622.087 1613.92 628.678 1606.81 636.417L1629.21 675.203L1610.98 675.215C1594.03 675.215 1579.81 688.741 1579.72 705.733C1579.66 716.388 1581.25 726.987 1584.48 737.141L1629.23 737.138L1620.1 752.916C1611.57 767.683 1616.3 786.814 1631.06 795.341C1640.21 800.626 1650.12 804.52 1660.46 806.827L1682.83 768.08L1691.96 783.888C1700.45 798.606 1719.29 804.11 1734.11 795.669L1734.44 795.476C1743.54 790.22 1751.76 783.63 1758.87 775.891L1736.48 737.105L1754.71 737.093C1771.65 737.092 1785.88 723.567 1785.97 706.575C1786.03 695.92 1784.44 685.321 1781.25 675.143L1736.5 675.146L1745.63 659.367C1754.16 644.601 1749.44 625.469 1734.67 616.943C1725.48 611.682 1715.53 607.812 1705.19 605.505Z" fill="white"/>
<path d="M1221.62 1132.31L1199.25 1171.05L1190.12 1155.25C1181.63 1140.53 1162.79 1135.02 1148.02 1143.44L1147.64 1143.66C1138.58 1148.89 1130.36 1155.48 1123.25 1163.22L1145.64 1202.01L1127.42 1202.02C1110.47 1202.02 1096.24 1215.54 1096.15 1232.54C1096.1 1243.19 1097.68 1253.79 1100.92 1263.94L1145.7 1263.92L1136.51 1279.68C1127.98 1294.44 1132.7 1313.58 1147.47 1322.1C1156.64 1327.43 1166.53 1331.28 1176.87 1333.59L1199.24 1294.84L1208.37 1310.65C1216.86 1325.37 1235.73 1330.91 1250.52 1322.43L1250.85 1322.24C1259.95 1316.98 1268.17 1310.39 1275.28 1302.65L1252.87 1263.82L1271.09 1263.81C1288.04 1263.81 1302.27 1250.29 1302.36 1233.29C1302.41 1222.64 1300.82 1212.04 1297.59 1201.89L1252.85 1201.89L1261.97 1186.11C1270.5 1171.34 1265.78 1152.21 1251.05 1143.66C1241.89 1138.44 1231.98 1134.55 1221.62 1132.31Z" fill="white"/>
<path d="M980.146 1395.56L957.772 1434.31L948.645 1418.5C940.148 1403.78 921.31 1398.28 906.538 1406.69L906.16 1406.91C897.099 1412.14 888.88 1418.73 881.77 1426.47L904.163 1465.26L885.937 1465.27C868.99 1465.27 854.763 1478.8 854.674 1495.79C854.617 1506.44 856.248 1517.02 859.416 1527.16L904.2 1527.13L895.076 1542.91C886.543 1557.67 891.269 1576.8 906.035 1585.33C915.207 1590.66 925.094 1594.51 935.43 1596.82L957.804 1558.07L966.93 1573.88C975.428 1588.6 994.266 1594.1 1009.04 1585.68L1009.37 1585.49C1018.48 1580.23 1026.7 1573.64 1033.81 1565.91L1011.41 1527.12L1029.64 1527.11C1046.59 1527.11 1060.81 1513.58 1060.9 1496.59C1060.96 1485.93 1059.37 1475.34 1056.14 1465.18L1011.39 1465.18L1020.52 1449.41C1029.05 1434.64 1024.32 1415.51 1009.56 1406.98C1000.37 1401.72 990.44 1397.89 980.146 1395.56Z" fill="white"/>
<path d="M1176.89 1333.63L1154.52 1372.38L1145.39 1356.57C1136.89 1341.85 1118.05 1336.35 1103.28 1344.76L1102.9 1344.98C1093.84 1350.21 1085.62 1356.8 1078.51 1364.54L1100.91 1403.33L1082.62 1403.32C1065.67 1403.32 1051.44 1416.85 1051.35 1433.84C1051.3 1444.49 1052.88 1455.09 1056.12 1465.25L1100.86 1465.25L1091.74 1481.02C1083.2 1495.79 1087.93 1514.92 1102.7 1523.45C1111.87 1528.78 1121.75 1532.63 1132.09 1534.93L1154.46 1496.19L1163.59 1512C1172.09 1526.71 1190.93 1532.22 1205.7 1523.8L1206.03 1523.61C1215.14 1518.35 1223.36 1511.76 1230.47 1504.02L1208.07 1465.24L1226.3 1465.22C1243.25 1465.22 1257.47 1451.7 1257.56 1434.71C1257.62 1424.05 1256.03 1413.45 1252.8 1403.3L1208.05 1403.3L1217.2 1387.46C1225.73 1372.69 1221 1353.56 1206.24 1345.03C1197.11 1339.79 1187.2 1335.89 1176.89 1333.63Z" fill="white"/>
<path d="M1373.63 1271.7L1351.26 1310.45L1342.13 1294.64C1333.64 1279.92 1314.8 1274.42 1300.03 1282.83L1299.65 1283.05C1290.59 1288.28 1282.37 1294.87 1275.26 1302.61L1297.65 1341.4L1279.43 1341.41C1262.48 1341.41 1248.25 1354.93 1248.16 1371.93C1248.11 1382.58 1249.7 1393.18 1252.93 1403.33L1297.67 1403.33L1288.55 1419.11C1280.01 1433.88 1284.74 1453.01 1299.51 1461.53C1308.68 1466.86 1318.57 1470.71 1328.9 1473.02L1351.28 1434.27L1360.4 1450.08C1368.9 1464.8 1387.74 1470.3 1402.55 1461.86L1402.89 1461.67C1411.99 1456.41 1420.21 1449.82 1427.32 1442.08L1404.93 1403.3L1423.15 1403.29C1440.1 1403.29 1454.33 1389.76 1454.42 1372.77C1454.47 1362.11 1452.88 1351.51 1449.65 1341.36L1404.91 1341.36L1414.03 1325.59C1422.56 1310.82 1417.84 1291.69 1403.11 1283.14C1393.86 1277.86 1383.97 1274.01 1373.63 1271.7Z" fill="white"/>
<path d="M1570.27 1209.77L1547.9 1248.52L1538.77 1232.71C1530.27 1217.99 1511.44 1212.49 1496.66 1220.91L1496.29 1221.12C1487.22 1226.36 1479.01 1232.95 1471.9 1240.69L1494.29 1279.47L1476.06 1279.48C1459.12 1279.48 1444.89 1293.01 1444.8 1310C1444.74 1320.66 1446.33 1331.26 1449.57 1341.41L1494.31 1341.41L1485.18 1357.18C1476.65 1371.95 1481.38 1391.08 1496.14 1399.61C1505.31 1404.94 1515.2 1408.79 1525.54 1411.1L1547.91 1372.35L1557.04 1388.16C1565.54 1402.87 1584.37 1408.38 1599.19 1399.94L1599.52 1399.74C1608.63 1394.49 1616.85 1387.9 1623.96 1380.16L1601.56 1341.37L1619.79 1341.36C1636.74 1341.36 1650.96 1327.84 1651.05 1310.84C1651.11 1300.19 1649.52 1289.59 1646.29 1279.44L1601.54 1279.44L1610.67 1263.66C1619.2 1248.89 1614.47 1229.76 1599.75 1221.21C1590.49 1215.93 1580.61 1212.08 1570.27 1209.77Z" fill="white"/>
<path d="M1767.04 1147.6L1744.67 1186.35L1735.54 1170.54C1727.05 1155.82 1708.21 1150.32 1693.44 1158.73L1693.06 1158.95C1684 1164.18 1675.78 1170.77 1668.67 1178.51L1691.06 1217.3L1672.84 1217.31C1655.89 1217.31 1641.66 1230.84 1641.57 1247.83C1641.52 1258.48 1643.11 1269.08 1646.34 1279.24L1691.08 1279.23L1681.96 1295.01C1673.42 1309.78 1678.15 1328.91 1692.92 1337.44C1702.09 1342.76 1711.97 1346.62 1722.31 1348.92L1744.68 1310.18L1753.81 1325.98C1762.31 1340.7 1781.15 1346.21 1795.96 1337.77L1796.3 1337.57C1805.4 1332.32 1813.62 1325.73 1820.73 1317.99L1798.34 1279.2L1816.56 1279.19C1833.51 1279.19 1847.74 1265.66 1847.83 1248.67C1847.88 1238.02 1846.29 1227.42 1843.06 1217.26L1798.32 1217.27L1807.44 1201.49C1815.97 1186.72 1811.25 1167.59 1796.52 1159.04C1787.27 1153.76 1777.38 1149.91 1767.04 1147.6Z" fill="white"/>
<path d="M1964.06 1085.85L1941.69 1124.6L1932.56 1108.79C1924.06 1094.07 1905.22 1088.57 1890.45 1096.98L1890.07 1097.2C1881.01 1102.43 1872.79 1109.02 1865.68 1116.76L1888.08 1155.55L1869.85 1155.56C1852.9 1155.56 1838.68 1169.09 1838.59 1186.08C1838.53 1196.73 1840.12 1207.33 1843.35 1217.49L1888.1 1217.48L1878.97 1233.26C1870.44 1248.03 1875.17 1267.16 1889.93 1275.69C1899.1 1281.01 1908.99 1284.86 1919.33 1287.17L1941.7 1248.42L1950.83 1264.23C1959.32 1278.95 1978.16 1284.46 1992.98 1276.01L1993.31 1275.82C2002.41 1270.57 2010.63 1263.97 2017.74 1256.24L1995.35 1217.45L2013.58 1217.44C2030.52 1217.44 2044.75 1203.91 2044.84 1186.92C2044.9 1176.26 2043.31 1165.67 2040.07 1155.51L1995.33 1155.51L2004.46 1139.74C2012.99 1124.97 2008.26 1105.84 1993.54 1097.29C1984.28 1092.01 1974.4 1088.16 1964.06 1085.85Z" fill="white"/>
<path d="M738.361 1658.77L715.988 1697.52L706.861 1681.71C698.364 1666.99 679.525 1661.49 664.753 1669.9L664.376 1670.12C655.315 1675.35 647.053 1681.97 639.986 1689.68L662.379 1728.47L644.129 1728.44C627.182 1728.44 612.955 1741.96 612.865 1758.95C612.809 1769.61 614.398 1780.21 617.589 1790.39L662.332 1790.38L653.208 1806.16C644.675 1820.93 649.401 1840.06 664.125 1848.61C673.297 1853.94 683.225 1857.77 693.604 1860.05L715.977 1821.3L725.104 1837.11C733.601 1851.83 752.464 1857.37 767.254 1848.89L767.589 1848.7C776.692 1843.44 784.912 1836.85 792.021 1829.11L769.628 1790.33L787.854 1790.31C804.843 1790.29 819.028 1776.79 819.118 1759.8C819.174 1749.14 817.543 1738.57 814.376 1728.43L769.633 1728.43L778.757 1712.65C787.29 1697.89 782.589 1678.8 767.84 1670.21C758.626 1664.9 748.715 1661.01 738.361 1658.77Z" fill="white"/>
<path d="M935.352 1596.97L912.979 1635.72L903.852 1619.91C895.355 1605.19 876.516 1599.69 861.744 1608.11L861.367 1608.32C852.306 1613.56 844.086 1620.15 836.977 1627.89L859.37 1666.67L841.144 1666.68C824.197 1666.68 809.97 1680.21 809.88 1697.2C809.824 1707.86 811.455 1718.43 814.622 1728.57L859.406 1728.54L850.283 1744.32C841.75 1759.09 846.475 1778.22 861.242 1786.74C870.414 1792.07 880.3 1795.92 890.637 1798.23L913.01 1759.48L922.137 1775.29C930.634 1790.01 949.473 1795.51 964.245 1787.1L964.58 1786.9C973.683 1781.65 981.903 1775.06 989.012 1767.32L966.619 1728.53L984.845 1728.52C1001.79 1728.52 1016.02 1714.99 1016.11 1698C1016.17 1687.35 1014.58 1676.75 1011.34 1666.59L966.6 1666.6L975.724 1650.82C984.257 1636.05 979.531 1616.92 964.765 1608.39C955.575 1603.13 945.647 1599.3 935.352 1596.97Z" fill="white"/>
<path d="M1132.1 1535.04L1109.72 1573.79L1100.6 1557.98C1092.1 1543.26 1073.26 1537.76 1058.49 1546.18L1058.11 1546.39C1049.05 1551.62 1040.83 1558.22 1033.72 1565.95L1056.11 1604.74L1037.82 1604.73C1020.88 1604.73 1006.65 1618.26 1006.56 1635.25C1006.5 1645.91 1008.09 1656.51 1011.33 1666.66L1056.07 1666.66L1046.94 1682.44C1038.41 1697.2 1043.14 1716.33 1057.9 1724.86C1067.07 1730.19 1076.96 1734.04 1087.3 1736.35L1109.67 1697.6L1118.8 1713.41C1127.3 1728.13 1146.13 1733.63 1160.91 1725.21L1161.24 1725.02C1170.34 1719.76 1178.56 1713.17 1185.67 1705.43L1163.28 1666.65L1181.51 1666.64C1198.45 1666.64 1212.68 1653.11 1212.77 1636.12C1212.83 1625.46 1211.24 1614.86 1208 1604.71L1163.26 1604.71L1172.4 1588.87C1180.94 1574.1 1176.21 1554.97 1161.44 1546.44C1152.32 1541.2 1142.41 1537.31 1132.1 1535.04Z" fill="white"/>
<path d="M1328.84 1473.11L1306.47 1511.86L1297.34 1496.05C1288.84 1481.33 1270.01 1475.83 1255.23 1484.24L1254.86 1484.46C1245.8 1489.69 1237.58 1496.28 1230.47 1504.02L1252.86 1542.81L1234.63 1542.82C1217.69 1542.82 1203.46 1556.35 1203.37 1573.34C1203.31 1583.99 1204.9 1594.59 1208.14 1604.75L1252.88 1604.74L1243.75 1620.52C1235.22 1635.29 1239.95 1654.42 1254.71 1662.95C1263.89 1668.27 1273.77 1672.13 1284.11 1674.43L1306.48 1635.69L1315.61 1651.49C1324.11 1666.21 1342.94 1671.72 1357.76 1663.28L1358.09 1663.08C1367.2 1657.83 1375.42 1651.24 1382.53 1643.5L1360.13 1604.71L1378.36 1604.7C1395.31 1604.7 1409.53 1591.17 1409.62 1574.18C1409.68 1563.53 1408.09 1552.93 1404.86 1542.77L1360.11 1542.78L1369.24 1527C1377.77 1512.23 1373.05 1493.1 1358.32 1484.55C1349.06 1479.27 1339.18 1475.42 1328.84 1473.11Z" fill="white"/>
<path d="M1525.48 1411.19L1503.11 1449.93L1493.98 1434.12C1485.48 1419.41 1466.64 1413.9 1451.87 1422.32L1451.49 1422.54C1442.43 1427.77 1434.21 1434.36 1427.1 1442.1L1449.5 1480.88L1431.27 1480.9C1414.32 1480.9 1400.1 1494.42 1400.01 1511.41C1399.95 1522.07 1401.54 1532.67 1404.77 1542.82L1449.52 1542.82L1440.39 1558.6C1431.86 1573.36 1436.58 1592.49 1451.35 1601.02C1460.52 1606.35 1470.41 1610.2 1480.75 1612.51L1503.12 1573.76L1512.25 1589.57C1520.74 1604.29 1539.58 1609.79 1554.4 1601.35L1554.73 1601.16C1563.83 1595.9 1572.05 1589.31 1579.16 1581.57L1556.77 1542.79L1575 1542.77C1591.94 1542.77 1606.17 1529.25 1606.26 1512.26C1606.32 1501.6 1604.73 1491 1601.49 1480.85L1556.75 1480.85L1565.87 1465.07C1574.41 1450.31 1569.68 1431.17 1554.96 1422.62C1545.7 1417.34 1535.82 1413.49 1525.48 1411.19Z" fill="white"/>
<path d="M1722.25 1349.01L1699.88 1387.76L1690.75 1371.95C1682.25 1357.23 1663.42 1351.73 1648.64 1360.15L1648.27 1360.36C1639.21 1365.6 1630.99 1372.19 1623.88 1379.93L1646.27 1418.71L1628.04 1418.72C1611.1 1418.72 1596.87 1432.25 1596.78 1449.24C1596.72 1459.9 1598.31 1470.5 1601.55 1480.65L1646.29 1480.65L1637.16 1496.42C1628.63 1511.19 1633.36 1530.32 1648.12 1538.85C1657.3 1544.18 1667.18 1548.03 1677.52 1550.34L1699.89 1511.59L1709.02 1527.4C1717.52 1542.11 1736.35 1547.62 1751.17 1539.18L1751.5 1538.98C1760.61 1533.73 1768.83 1527.14 1775.94 1519.4L1753.54 1480.61L1771.77 1480.6C1788.72 1480.6 1802.94 1467.08 1803.03 1450.08C1803.09 1439.43 1801.5 1428.83 1798.27 1418.68L1753.52 1418.68L1762.65 1402.9C1771.18 1388.13 1766.45 1369 1751.73 1360.45C1742.47 1355.17 1732.59 1351.32 1722.25 1349.01Z" fill="white"/>
<path d="M1919.27 1287.26L1896.89 1326.01L1887.77 1310.2C1879.27 1295.48 1860.43 1289.98 1845.66 1298.39L1845.28 1298.61C1836.22 1303.84 1828 1310.43 1820.89 1318.17L1843.29 1356.96L1825.06 1356.97C1808.11 1356.97 1793.89 1370.5 1793.8 1387.49C1793.74 1398.14 1795.33 1408.74 1798.56 1418.9L1843.3 1418.89L1834.18 1434.67C1825.65 1449.44 1830.37 1468.57 1845.14 1477.1C1854.31 1482.42 1864.2 1486.28 1874.53 1488.58L1896.91 1449.84L1906.03 1465.64C1914.53 1480.36 1933.37 1485.87 1948.18 1477.43L1948.52 1477.23C1957.62 1471.98 1965.84 1465.39 1972.95 1457.65L1950.56 1418.86L1968.78 1418.85C1985.73 1418.85 1999.96 1405.32 2000.05 1388.33C2000.1 1377.68 1998.52 1367.08 1995.28 1356.92L1950.54 1356.93L1959.66 1341.15C1968.2 1326.38 1963.47 1307.25 1948.75 1298.7C1939.49 1293.42 1929.6 1289.57 1919.27 1287.26Z" fill="white"/>
</svg>
