<svg width="30" height="30" viewBox="0 0 30 30" fill="none" xmlns="http://www.w3.org/2000/svg">
<path d="M25.3896 3.94973L19.6176 7.20325V4.54832C19.6176 2.07649 17.5974 0.0131079 15.0649 -0.000976562H15C13.4416 -0.000976562 11.8831 0.231418 10.3968 0.682122V7.19621L8.03752 5.87931C5.85137 4.64691 3.00866 5.31593 1.7316 7.44973C0.930736 8.78776 0.34632 10.2385 0 11.7525L5.77201 15.0061L3.42713 16.323C1.22655 17.5624 0.411256 20.3159 1.67388 22.4638C2.46032 23.7948 3.44877 25.0061 4.6176 26.0483L10.3896 22.7948V25.4497C10.3896 27.9216 12.4098 29.9849 14.9495 29.999H15.0072C16.5729 29.999 18.1241 29.7666 19.6176 29.3089V22.8018L21.9697 24.1258C24.1558 25.3582 26.9986 24.6892 28.2756 22.5554C29.0765 21.2173 29.6609 19.7666 30 18.2525L24.228 14.999L26.5801 13.6751C28.7807 12.4356 29.596 9.68212 28.3261 7.53424C27.5397 6.19621 26.5512 4.99198 25.3896 3.94973Z" fill="#00E5B9"/>
</svg>
