<svg width="80" height="80" viewBox="0 0 80 80" fill="none" xmlns="http://www.w3.org/2000/svg">
<path d="M55.9722 11.8359H52.6167C52.2955 11.157 51.9214 10.508 51.4964 9.89202L53.1731 6.9878C53.7245 6.0328 53.3973 4.81171 52.4423 4.26046L45.5263 0.267489C45.0677 0.00264525 44.5225 -0.0689172 44.0112 0.0679578C43.4998 0.205145 43.0637 0.539677 42.7991 0.99827L41.125 3.8978C40.3695 3.83358 39.6305 3.83358 38.875 3.8978L37.2009 0.99827C36.9361 0.539677 36.5 0.205145 35.9888 0.0679578C35.4775 -0.0689172 34.9323 0.00264525 34.4738 0.267489L27.5577 4.26061C26.6027 4.81186 26.2755 6.03296 26.8269 6.98796L28.5036 9.89233C28.0786 10.5081 27.7045 11.1573 27.3833 11.8361H24.0278C22.9252 11.8361 22.0312 12.73 22.0312 13.8326V21.8187C22.0312 22.9214 22.9252 23.8153 24.0278 23.8153H27.3833C27.7045 24.4939 28.0786 25.1431 28.5036 25.7589L26.8269 28.6633C26.2755 29.6183 26.6027 30.8394 27.5577 31.3906L34.4738 35.3837C34.9322 35.6486 35.4772 35.72 35.9888 35.5833C36.5002 35.4461 36.9362 35.1116 37.2009 34.653L38.875 31.7531C39.6305 31.8176 40.3695 31.8176 41.125 31.7531L42.7991 34.6526C43.0639 35.1112 43.5 35.4458 44.0112 35.583C44.1812 35.6284 44.355 35.6509 44.5281 35.6509C44.8756 35.6509 45.2203 35.5601 45.5264 35.3834L52.4425 31.3903C53.3975 30.8391 53.7247 29.618 53.1733 28.663L51.4966 25.7587C51.9216 25.143 52.2956 24.4939 52.6169 23.815H55.9723C57.075 23.815 57.9689 22.9211 57.9689 21.8184V19.8219V15.8287V13.8325C57.9688 12.7298 57.0748 11.8359 55.9722 11.8359ZM40 23.6848C36.7689 23.6848 34.1406 21.0566 34.1406 17.8255C34.1406 14.5944 36.7689 11.9661 40 11.9661C43.2311 11.9661 45.8594 14.5944 45.8594 17.8255C45.8594 21.0566 43.2311 23.6848 40 23.6848Z" fill="#00E5B9"/>
<path d="M12.5 25.2975V20.1689H17.3438V15.4814H10.1562C8.86187 15.4814 7.8125 16.5308 7.8125 17.8252V25.2975C5.99547 25.7247 4.3275 26.6466 2.97469 27.9996C1.05641 29.9177 0 32.4682 0 35.181C0 37.8938 1.05641 40.4444 2.97469 42.3625C3.88984 43.2777 5.37391 43.2777 6.28922 42.3625C7.20453 41.4474 7.20453 39.9633 6.28922 39.048C4.15703 36.9158 4.15703 33.4461 6.28922 31.3139C7.32219 30.2811 8.69547 29.7122 10.1562 29.7122C11.617 29.7122 12.9903 30.2811 14.0233 31.3139C16.1555 33.4461 16.1555 36.9158 14.0233 39.048C13.108 39.9632 13.108 41.4472 14.0233 42.3625C14.4809 42.8202 15.0808 43.0491 15.6805 43.0491C16.2802 43.0491 16.8802 42.8202 17.3377 42.3625C19.2559 40.4444 20.3123 37.8938 20.3123 35.181C20.3123 32.4682 19.2559 29.9175 17.3377 27.9994C15.985 26.6466 14.317 25.7247 12.5 25.2975Z" fill="#00E5B9"/>
<path d="M77.0253 27.9996C75.6725 26.6466 74.0045 25.7249 72.1875 25.2975V17.8252C72.1875 16.5308 71.1381 15.4814 69.8437 15.4814H62.6562V20.1689H67.5V25.2975C65.683 25.7247 64.015 26.6466 62.6622 27.9996C60.7439 29.9179 59.6875 32.4683 59.6875 35.1811C59.6875 37.8939 60.7439 40.4446 62.6622 42.3627C63.5773 43.2779 65.0614 43.2779 65.9767 42.3627C66.892 41.4475 66.892 39.9635 65.9767 39.0482C63.8445 36.916 63.8445 33.4463 65.9767 31.3141C67.0097 30.2813 68.383 29.7124 69.8437 29.7124C71.3045 29.7124 72.6778 30.2813 73.7108 31.3141C75.843 33.4463 75.843 36.916 73.7108 39.0482C72.7955 39.9633 72.7955 41.4474 73.7108 42.3627C74.1684 42.8204 74.7683 43.0493 75.368 43.0493C75.9677 43.0493 76.5677 42.8204 77.0252 42.3627C78.9434 40.4446 79.9998 37.8939 79.9998 35.1811C79.9998 32.4683 78.9436 29.9179 77.0253 27.9996Z" fill="#00E5B9"/>
<path d="M6.40625 80C9.85803 80 12.6562 77.2018 12.6562 73.75C12.6562 70.2982 9.85803 67.5 6.40625 67.5C2.95447 67.5 0.15625 70.2982 0.15625 73.75C0.15625 77.2018 2.95447 80 6.40625 80Z" fill="#00E5B9"/>
<path d="M40 80C43.4518 80 46.25 77.2018 46.25 73.75C46.25 70.2982 43.4518 67.5 40 67.5C36.5482 67.5 33.75 70.2982 33.75 73.75C33.75 77.2018 36.5482 80 40 80Z" fill="#00E5B9"/>
<path d="M48.9683 67.5C50.2076 69.2731 50.9376 71.4273 50.9376 73.75C50.9376 76.0727 50.2076 78.2269 48.9683 80H64.6258C63.3864 78.2269 62.6564 76.0727 62.6564 73.75C62.6564 71.4273 63.3864 69.2731 64.6258 67.5H48.9683Z" fill="#00E5B9"/>
<path d="M15.3745 67.5C16.6139 69.2731 17.3439 71.4273 17.3439 73.75C17.3439 76.0727 16.6139 78.2269 15.3745 80H31.032C29.7926 78.2269 29.0626 76.0727 29.0626 73.75C29.0626 71.4273 29.7926 69.2731 31.032 67.5H15.3745Z" fill="#00E5B9"/>
<path d="M73.5938 80C77.0455 80 79.8438 77.2018 79.8438 73.75C79.8438 70.2982 77.0455 67.5 73.5938 67.5C70.142 67.5 67.3438 70.2982 67.3438 73.75C67.3438 77.2018 70.142 80 73.5938 80Z" fill="#00E5B9"/>
<path d="M45.8594 48.75H34.1406C32.8462 48.75 31.7969 49.7994 31.7969 51.0938V62.8125H48.2031V51.0938C48.2031 49.7994 47.1538 48.75 45.8594 48.75Z" fill="#00E5B9"/>
<path d="M22.4219 48.75H10.7031C9.40875 48.75 8.35938 49.7994 8.35938 51.0938V62.8125H24.7656V51.0938C24.7656 49.7994 23.7163 48.75 22.4219 48.75Z" fill="#00E5B9"/>
<path d="M57.5781 48.75C56.2837 48.75 55.2344 49.7994 55.2344 51.0938V62.8125H71.6406V51.0938C71.6406 49.7994 70.5913 48.75 69.2969 48.75H57.5781Z" fill="#00E5B9"/>
</svg>
