<svg width="80" height="80" viewBox="0 0 80 80" fill="none" xmlns="http://www.w3.org/2000/svg">
<path d="M79.1816 24.3142L71.2166 17.4871C70.5133 16.8845 69.5536 16.7501 68.7119 17.1374C67.8703 17.5245 67.3477 18.3403 67.3477 19.2667V21.4062H58.75C53.5723 21.4062 49.375 25.6035 49.375 30.7812V33.8134C49.445 33.9487 49.5113 34.0862 49.5725 34.2263C50.3834 33.9067 51.2556 33.7396 52.1534 33.7396C54.0319 33.7396 55.7978 34.4713 57.1258 35.7998L58.75 37.424V30.7812H67.3475V32.9207C67.3475 33.8471 67.8703 34.6629 68.7117 35.0499C69.0305 35.1965 69.3659 35.2684 69.6981 35.2684C70.2431 35.2684 70.7794 35.0748 71.2164 34.7001L79.1814 27.8731C79.7017 27.4273 80 26.7788 80 26.0937C80 25.4085 79.7017 24.7601 79.1816 24.3142Z" fill="#00E5B9"/>
<path d="M27.8466 33.7396C28.7445 33.7396 29.6166 33.9067 30.4275 34.2263C30.4887 34.0862 30.555 33.9487 30.625 33.8134V30.7812C30.625 25.6035 26.4277 21.4062 21.25 21.4062H12.6525V19.2667C12.6525 18.3403 12.1297 17.5245 11.2883 17.1374C10.4464 16.7501 9.48687 16.8845 8.78359 17.4871L0.818437 24.3142C0.298281 24.7601 0 25.4085 0 26.0937C0 26.7789 0.298281 27.4273 0.818437 27.8732L8.78344 34.7003C9.22047 35.0748 9.75672 35.2685 10.3017 35.2685C10.6341 35.2685 10.9694 35.1967 11.2881 35.0501C12.1297 34.6631 12.6523 33.8473 12.6523 32.9209V30.7812H21.25V37.4237L22.8747 35.799C24.2027 34.4709 25.9684 33.7396 27.8466 33.7396Z" fill="#00E5B9"/>
<path d="M43.1251 30C43.6619 30 44.1849 30.0606 44.6876 30.1752V12.6525H46.8271C47.7535 12.6525 48.5693 12.1297 48.9563 11.2883C49.3435 10.4466 49.2094 9.48703 48.6066 8.78359L41.7796 0.818437C41.3337 0.298281 40.6852 0 40.0001 0C39.3151 0 38.6663 0.298281 38.2205 0.818437L31.3934 8.78344C30.7905 9.48688 30.6565 10.4466 31.0437 11.2881C31.4307 12.1297 32.2466 12.6523 33.1729 12.6523H35.3126V30.175C35.8152 30.0605 36.3382 29.9998 36.8751 29.9998H43.1251V30Z" fill="#00E5B9"/>
<path d="M60.3125 51.875H59.568C59.1311 50.3027 58.5075 48.7984 57.7025 47.3753L58.2302 46.8478C58.6695 46.4083 58.9167 45.812 58.9167 45.1905C58.9167 44.5689 58.6698 43.9727 58.2302 43.5333L53.8106 39.1138C53.3713 38.6742 52.775 38.4272 52.1534 38.4272C51.5319 38.4272 50.9356 38.6742 50.4961 39.1138L49.9686 39.6414C48.5456 38.8364 47.0414 38.2127 45.4689 37.7759V37.0312C45.4689 35.7369 44.4195 34.6875 43.1252 34.6875H36.8752C35.5808 34.6875 34.5314 35.7369 34.5314 37.0312V37.7758C32.9589 38.2127 31.4548 38.8362 30.0317 39.6412L29.5042 39.1136C29.0647 38.6741 28.4686 38.427 27.8469 38.427C27.2252 38.427 26.6292 38.6739 26.1895 39.1136L21.7702 43.5331C21.3306 43.9727 21.0838 44.5689 21.0838 45.1903C21.0838 45.812 21.3308 46.4081 21.7703 46.8475L22.2978 47.375C21.4928 48.7981 20.8692 50.3022 20.4323 51.8748H19.6875C18.3931 51.8748 17.3438 52.9242 17.3438 54.2186V60.4686C17.3438 61.763 18.3931 62.8123 19.6875 62.8123H20.4319C20.8688 64.3848 21.4923 65.8889 22.2973 67.3122L21.7698 67.8397C21.3303 68.2791 21.0833 68.8753 21.0833 69.4969C21.0833 70.1184 21.3302 70.7145 21.7697 71.1541L26.1891 75.5736C26.6286 76.0131 27.2247 76.2602 27.8464 76.2602C28.4681 76.2602 29.0642 76.0133 29.5038 75.5736L30.0312 75.0459C31.4544 75.8511 32.9584 76.4747 34.5311 76.9114V77.6562C34.5311 78.9506 35.5805 80 36.8748 80H43.1248C44.4192 80 45.4686 78.9506 45.4686 77.6562V76.9117C47.0409 76.4748 48.5453 75.8512 49.9684 75.0464L50.4958 75.5739C50.9353 76.0133 51.5316 76.2605 52.1531 76.2605C52.7747 76.2605 53.3709 76.0136 53.8103 75.5739L58.2298 71.1544C58.6694 70.715 58.9164 70.1188 58.9164 69.4972C58.9164 68.8756 58.6694 68.2794 58.2298 67.8398L57.7022 67.3123C58.5072 65.8894 59.1309 64.3852 59.5677 62.8127H60.3125C61.6069 62.8127 62.6562 61.7633 62.6562 60.4689V54.2189C62.6562 52.9244 61.6069 51.875 60.3125 51.875ZM40.0011 65.1562C40.0009 65.1562 40.0008 65.1562 40.0005 65.1562C40.0002 65.1562 40.0002 65.1562 39.9998 65.1562C35.6852 65.1562 32.1873 61.6584 32.1873 57.3438C32.1873 53.0291 35.6852 49.5312 39.9998 49.5312H40.0005C40.0005 49.5312 40.0008 49.5312 40.0011 49.5312C44.3158 49.5312 47.8136 53.0291 47.8136 57.3438C47.8136 61.6584 44.3158 65.1562 40.0011 65.1562Z" fill="#00E5B9"/>
</svg>
