<svg width="80" height="80" viewBox="0 0 80 80" fill="none" xmlns="http://www.w3.org/2000/svg">
<g clip-path="url(#clip0)">
<path d="M77.6552 75.3124H75.1552V29.0631C75.1552 27.7687 74.1059 26.7194 72.8115 26.7194H63.4366C62.1423 26.7194 61.0929 27.7687 61.0929 29.0631V75.3124H56.4055V44.6879C56.4055 43.3935 55.3561 42.3441 54.0618 42.3441H44.6869C43.3925 42.3441 42.3432 43.3935 42.3432 44.6879V75.3124H37.6557V53.2815C37.6557 51.9871 36.6064 50.9378 35.312 50.9378H25.9371C24.6428 50.9378 23.5934 51.9871 23.5934 53.2815V75.3124H18.906V58.9064C18.906 57.6121 17.8566 56.5627 16.5623 56.5627H7.1874C5.89304 56.5627 4.84368 57.6121 4.84368 58.9064V75.3124H2.34372C1.04936 75.3124 0 76.3618 0 77.6562C0 78.9505 1.04936 79.9999 2.34372 79.9999H77.6552C78.9495 79.9999 79.9989 78.9505 79.9989 77.6562C79.9989 76.3618 78.9495 75.3124 77.6552 75.3124Z" fill="#00E5B9"/>
<path d="M2.34372 50.3602C16.9713 50.3602 32.8339 45.1068 47.0097 35.5677C58.1119 28.0967 67.3666 18.5526 73.1152 8.7798L75.3915 17.2745C75.6721 18.3217 77.0269 19.2264 78.2619 18.9317C79.5209 18.6314 80.2541 17.3116 79.9191 16.0613L76.0811 1.73802C75.746 0.487877 74.4615 -0.254301 73.2107 0.0808512L58.8875 3.91877C57.6372 4.25376 56.8953 5.5389 57.2303 6.7892C57.5655 8.03949 58.85 8.78167 60.1007 8.44636L69.3279 5.9739C63.9647 15.2935 55.1011 24.4727 44.3927 31.6787C30.9822 40.703 16.049 45.6727 2.34372 45.6727C1.04936 45.6727 0 46.7221 0 48.0164C0 49.3108 1.04936 50.3602 2.34372 50.3602Z" fill="#00E5B9"/>
</g>
<defs>
<clipPath id="clip0">
<rect width="80" height="80" fill="white"/>
</clipPath>
</defs>
</svg>
