<svg width="80" height="80" viewBox="0 0 80 80" fill="none" xmlns="http://www.w3.org/2000/svg">
<g clip-path="url(#clip0)">
<path d="M51.1259 36.3406C47.9866 34.6058 44.6491 33.2839 41.3445 31.9126C39.4279 31.1195 37.5939 30.1942 35.9747 28.9054C32.7858 26.361 33.3972 22.2303 37.1313 20.5946C38.1887 20.1319 39.2957 19.9832 40.4193 19.9171C44.7482 19.6858 48.8623 20.4789 52.7782 22.3625C54.7279 23.3043 55.3723 23.0069 56.0332 20.9746C56.7271 18.8266 57.3054 16.6456 57.9498 14.4812C58.3794 13.0272 57.8507 12.0689 56.4793 11.4575C53.9678 10.3505 51.3903 9.55743 48.6806 9.12784C45.1448 8.5826 45.1448 8.56607 45.1282 5.0137C45.1117 0.0073435 45.1117 0.0073434 40.0888 0.0073434C39.3618 0.0073434 38.6348 -0.00917925 37.9078 0.0073434C35.5616 0.073434 35.1651 0.4865 35.099 2.84924C35.0659 3.90669 35.099 4.96414 35.0825 6.03811C35.0659 9.17741 35.0494 9.12784 32.0423 10.2183C24.7723 12.862 20.2782 17.8188 19.799 25.7496C19.3694 32.7717 23.0375 37.5137 28.8039 40.967C32.3562 43.0984 36.2886 44.3541 40.0558 46.0229C41.5263 46.6673 42.9307 47.4108 44.1534 48.4352C47.7719 51.4258 47.1109 56.3991 42.8151 58.2827C40.5184 59.2906 38.0896 59.5384 35.5947 59.2245C31.7449 58.7453 28.0603 57.7375 24.5906 55.9365C22.5583 54.879 21.9635 55.1599 21.2695 57.3574C20.6747 59.2575 20.146 61.1742 19.6173 63.0908C18.9068 65.6683 19.1712 66.2797 21.633 67.4858C24.7723 69.0059 28.1264 69.7825 31.5466 70.3277C34.2233 70.7573 34.3059 70.873 34.3389 73.6488C34.3555 74.9045 34.3555 76.1767 34.372 77.4325C34.3885 79.0186 35.1486 79.9439 36.7843 79.9769C38.6348 80.01 40.5019 80.01 42.3524 79.9604C43.8725 79.9274 44.6491 79.1012 44.6491 77.5646C44.6491 75.8463 44.7317 74.1114 44.6656 72.3931C44.583 70.6417 45.343 69.7494 47.0283 69.2868C50.9112 68.2293 54.2157 66.1475 56.7602 63.0412C63.8319 54.4495 61.1387 41.8757 51.1259 36.3406Z" fill="#00E5B9"/>
</g>
<defs>
<clipPath id="clip0">
<rect width="80" height="80" fill="white"/>
</clipPath>
</defs>
</svg>
