<svg width="313" height="313" viewBox="0 0 313 313" fill="none" xmlns="http://www.w3.org/2000/svg">
<g clip-path="url(#clip0)">
<path d="M156.5 0.25C70.4062 0.25 0.25 70.4062 0.25 156.5C0.25 242.594 70.4062 312.75 156.5 312.75C242.594 312.75 312.75 242.594 312.75 156.5C312.75 70.4062 242.594 0.25 156.5 0.25ZM140.875 125.25V78.375C140.875 69.7812 147.906 62.75 156.5 62.75C165.094 62.75 172.125 69.7812 172.125 78.375V125.25H200.094C207.125 125.25 210.562 133.687 205.562 138.531L161.969 182.125C158.844 185.25 154 185.25 150.875 182.125L107.281 138.531C106.202 137.43 105.472 136.033 105.185 134.518C104.897 133.002 105.065 131.436 105.666 130.016C106.268 128.595 107.276 127.385 108.565 126.537C109.853 125.689 111.364 125.241 112.906 125.25H140.875ZM219 234.625H94C85.4062 234.625 78.375 227.594 78.375 219C78.375 210.406 85.4062 203.375 94 203.375H219C227.594 203.375 234.625 210.406 234.625 219C234.625 227.594 227.594 234.625 219 234.625Z" fill="white"/>
</g>
<defs>
<clipPath id="clip0">
<rect width="313" height="313" fill="white"/>
</clipPath>
</defs>
</svg>
