<svg width="80" height="80" viewBox="0 0 80 80" fill="none" xmlns="http://www.w3.org/2000/svg">
<path d="M78.1872 10.857C68.5056 10.857 54.8278 11.667 47.838 18.6531C44.8117 21.6794 43.3005 26.6127 43.6929 32.1966C43.7438 32.9341 44.2342 33.5625 44.9389 33.7951C45.64 34.024 46.4102 33.8096 46.8898 33.2466C50.777 28.6727 55.6087 25.0072 61.2616 22.3515C61.7411 22.1226 62.3078 22.1044 62.8237 22.2861C63.2778 22.4496 63.6337 22.7583 63.819 23.1544C64.204 23.9683 64.0806 25.0399 62.8019 25.6429C62.7291 25.6792 62.6638 25.7265 62.5912 25.7592C62.5658 25.7701 62.5367 25.7665 62.5149 25.7774C48.5864 32.324 41.7384 43.7458 38.6286 55.4909C36.3616 40.7849 31.5735 32.1276 27.0506 26.8128C23.7774 22.5696 20.5585 20.3208 18.6986 19.0494C18.3534 18.8132 17.3109 18.1012 16.8785 17.6688C16.1701 16.9604 16.1701 15.8087 16.8785 15.1003C17.5869 14.3955 18.7422 14.3955 19.5305 15.1802C19.7231 15.351 20.0318 15.5689 20.4242 15.8305L20.7475 16.0485C23.3777 17.8503 28.275 21.1962 32.6198 28.4003C33.0086 29.0433 33.7606 29.3885 34.4908 29.2504C35.2319 29.1196 35.8131 28.5493 35.9585 27.8117C36.9067 22.9692 36.4817 15.7832 32.1622 11.4637C25.1726 4.48122 11.4947 3.67114 1.81668 3.67114C0.813826 3.67097 0 4.4848 0 5.48748C0 15.1691 0.81008 28.847 7.79614 35.8368C10.7097 38.7503 15.2037 40.0581 19.6684 40.0581C23.3121 40.0581 26.8833 39.1462 29.6189 37.5659C33.3498 45.2967 36.3289 56.8457 36.3289 74.5125C36.3289 75.5152 37.1428 76.329 38.1454 76.329C39.1481 76.329 39.9619 75.5152 39.9619 74.5125C39.9619 64.6565 41.6512 52.8277 47.9325 43.0915C50.4501 45.5511 54.7842 47.1096 59.5867 47.2549C59.8265 47.2622 60.0627 47.2658 60.2987 47.2658C65.1778 47.2658 69.4899 45.7364 72.2037 43.0188C79.1933 36.0292 79.9998 22.3513 79.9998 12.6695C80.0038 11.667 79.1935 10.857 78.1872 10.857Z" fill="#00E5B9"/>
</svg>
