<svg width="80" height="80" viewBox="0 0 80 80" fill="none" xmlns="http://www.w3.org/2000/svg">
<path d="M39.4768 29.3731C40.2294 29.6683 40.9677 28.9459 40.7182 28.1772C39.006 22.9008 32.8066 20.9325 27.0436 25.6137C24.0121 28.0764 22.873 28.5996 22.8442 28.6128C24.8427 30.611 27.1258 37.316 32.1085 38.0575C37.5972 39.0526 42.4551 33.6526 38.4806 31.1815C35.8668 29.5566 32.7893 28.6127 29.4905 28.6127C32.9489 27.8331 36.4013 28.1674 39.4768 29.3731Z" fill="#00E5B9"/>
<path d="M64.3307 25.6133C54.3826 17.5327 48.0383 30.276 51.9819 29.0128C54.7827 28.1156 57.8447 27.9202 60.9161 28.6125C55.7122 28.6125 50.9152 30.9973 47.7169 34.8792C47.9796 28.7788 48.3768 24.9603 48.8375 22.1198C51.4957 22.0285 55.0387 19.8819 56.9843 16.1257C60.3386 10.1228 58.7831 3.96778 58.2825 0.0839844C55.6615 2.63624 44.2123 -0.354331 39.6735 7.42326C37.6686 10.8589 38.2513 15.0397 40.3605 18.0992C41.0281 19.0677 42.6245 18.603 42.67 17.4276C42.8681 12.3145 45.4129 8.45141 50.1569 6.31177C48.0281 9.06998 46.6304 12.158 45.9083 15.3497C44.7859 20.3216 43.6136 23.5831 43.1831 39.4301C43.1394 41.0372 44.4413 42.3675 46.0489 42.3473C47.2127 42.3327 48.2096 41.5942 48.6572 40.5198C49.3379 38.8858 50.4458 37.1946 52.2487 35.6452C53.962 37.5389 56.569 38.5465 59.2666 38.0573C64.2279 37.319 66.5434 30.5994 68.5306 28.6123C68.5015 28.5995 67.3622 28.0762 64.3307 25.6133Z" fill="#00E5B9"/>
<path d="M78.9549 45.3586C75.8449 43.2486 72.4601 44.7522 70.9057 45.6497L51.3985 59.927L39.9766 59.9295L37.1211 57.0741H47.6107C50.7655 57.0741 54.2986 55.0192 54.2986 51.3619C54.2986 47.479 50.7655 45.6497 47.6107 45.6497H43.6798C40.7597 45.6497 37.3473 45.9101 34.9412 44.6221C32.6552 43.4588 30.0228 42.7969 27.2128 42.7969C22.4943 42.7969 18.2713 44.6779 15.3774 47.6444L0 62.7825L17.1328 79.9153L22.8438 71.3489H49.8309C52.709 71.3489 55.4872 70.2931 57.6388 68.3817L79.1501 49.2724C80.346 48.2101 80.2786 46.2568 78.9549 45.3586Z" fill="#00E5B9"/>
</svg>
