<svg width="80" height="80" viewBox="0 0 80 80" fill="none" xmlns="http://www.w3.org/2000/svg">
<g clip-path="url(#clip0)">
<path d="M2.23428 45.7817L7.45481 46.6373C8.2796 50.6348 9.85806 54.4388 12.1058 57.8458L9.01424 62.1606C8.37278 63.0338 8.3838 64.2255 9.0414 65.0868C9.82092 66.0396 10.6493 66.9516 11.5229 67.819C12.4042 68.7018 13.3127 69.5153 14.2484 70.3018C15.1102 70.9607 16.3035 70.9717 17.1774 70.3289L21.4894 67.236C24.8931 69.485 28.6944 71.0645 32.6897 71.8897L33.5441 77.1143C33.7068 78.183 34.5595 79.0137 35.6322 79.1482C36.3752 79.2324 37.1238 79.2838 37.8886 79.3219C38.26 79.34 38.6227 79.2059 38.8929 78.9505C39.1631 78.6951 39.3176 78.3405 39.3205 77.9686V67.1018C39.3165 66.3693 38.7347 65.7706 38.0025 65.7458C24.2997 65.0355 13.5535 53.7178 13.5535 39.9966C13.5535 26.2754 24.2997 14.9577 38.0025 14.2474C38.7347 14.2226 39.3165 13.624 39.3205 12.8913V2.03402C39.3186 1.66237 39.1652 1.30752 38.8957 1.05148C38.6261 0.795451 38.2638 0.660677 37.8925 0.677999C37.1305 0.709626 36.3771 0.763037 35.6321 0.837971C34.5591 0.984163 33.7098 1.81814 33.5439 2.8882L32.6896 8.1128C28.6944 8.93916 24.8933 10.5189 21.4892 12.7678L17.1772 9.67354C16.3034 9.03063 15.1101 9.04166 14.2483 9.7007C13.298 10.4813 12.3883 11.31 11.5227 12.1835C10.6426 13.0446 9.81396 13.9569 9.04127 14.9157C8.38091 15.778 8.36989 16.9729 9.01411 17.8473L12.1057 22.1621C9.85845 25.5679 8.27999 29.3704 7.45468 33.3665L2.23415 34.2208C1.16514 34.3841 0.334575 35.2373 0.200194 36.3104C-0.0667313 38.7439 -0.0667313 41.1992 0.200194 43.6326C0.320796 44.7234 1.15162 45.6014 2.23428 45.7817Z" fill="#00E5B9"/>
<path d="M38.0238 19.7022C27.3112 20.3808 18.97 29.2672 18.97 40.0012C18.97 50.7351 27.3113 59.6215 38.0238 60.3001C38.3646 60.3142 38.6963 60.1879 38.9413 59.9505C39.1863 59.7131 39.3232 59.3855 39.3201 59.0445V20.9579C39.3233 20.6167 39.1865 20.2892 38.9413 20.0518C38.6963 19.8145 38.3646 19.6881 38.0238 19.7022Z" fill="#00E5B9"/>
<path d="M48.8118 21.0175H42.032V23.7294H48.8118C51.0557 23.7227 52.873 21.9054 52.8797 19.6615V11.2762C54.7477 10.6159 55.8681 8.70578 55.5331 6.75305C55.1981 4.80032 53.505 3.37305 51.5237 3.37305C49.5425 3.37305 47.8494 4.80032 47.5143 6.75305C47.1793 8.70578 48.2997 10.6159 50.1677 11.2762V19.6615C50.1677 20.4105 49.5606 21.0175 48.8118 21.0175Z" fill="#00E5B9"/>
<path d="M42.032 29.1534H55.5918C56.3407 29.1534 56.9478 28.5464 56.9478 27.7974C56.9478 27.0485 56.3407 26.4414 55.5918 26.4414H42.032V29.1534Z" fill="#00E5B9"/>
<path d="M42.032 58.9847H48.8118C49.5607 58.9847 50.1678 59.5918 50.1678 60.3407V68.7261C48.2999 69.3864 47.1794 71.2965 47.5144 73.2492C47.8495 75.2019 49.5425 76.6292 51.5238 76.6292C53.505 76.6292 55.1982 75.2019 55.5332 73.2492C55.8683 71.2965 54.7478 69.3864 52.8799 68.7261V60.3407C52.8732 58.0968 51.0559 56.2795 48.8119 56.2728H42.0321V58.9847H42.032Z" fill="#00E5B9"/>
<path d="M62.3716 45.425H42.032V48.137H62.3716C63.1205 48.137 63.7276 48.744 63.7276 49.493V56.5224C61.8597 57.1827 60.7392 59.0928 61.0742 61.0455C61.4093 62.9983 63.1023 64.4256 65.0836 64.4256C67.0648 64.4256 68.758 62.9983 69.093 61.0455C69.428 59.0928 68.3076 57.1827 66.4396 56.5224V49.493C66.4328 47.249 64.6155 45.4317 62.3716 45.425Z" fill="#00E5B9"/>
<path d="M75.9314 35.9332C74.2137 35.9403 72.6855 37.0256 72.1129 38.6451H42.032V41.357H72.1129C72.8058 43.3023 74.8482 44.4179 76.8594 43.9497C78.8707 43.4814 80.2103 41.5786 79.9728 39.5273C79.7354 37.4761 77.9963 35.9296 75.9314 35.9332Z" fill="#00E5B9"/>
<path d="M56.9478 52.2049C56.9478 51.456 56.3407 50.8489 55.5918 50.8489H42.032V53.5608H55.5918C56.3407 53.5609 56.9478 52.9538 56.9478 52.2049Z" fill="#00E5B9"/>
<path d="M66.4394 30.5095V23.4801C68.3073 22.8197 69.4278 20.9096 69.0927 18.9569C68.7577 17.0042 67.0647 15.5769 65.0834 15.5769C63.1022 15.5769 61.409 17.0042 61.074 18.9569C60.7389 20.9096 61.8594 22.8197 63.7273 23.4801V30.5095C63.7273 31.2584 63.1203 31.8655 62.3713 31.8655H42.0317V34.5774H62.3713C64.6154 34.5706 66.4327 32.7533 66.4394 30.5095Z" fill="#00E5B9"/>
</g>
<defs>
<clipPath id="clip0">
<rect width="80" height="80" fill="white"/>
</clipPath>
</defs>
</svg>
