<svg width="357" height="357" viewBox="0 0 357 357" fill="none" xmlns="http://www.w3.org/2000/svg">
<path d="M178.5 5.57812C82.969 5.57812 5.57812 82.9802 5.57812 178.5C5.57812 274.02 82.9802 351.422 178.5 351.422C274.031 351.422 351.422 274.02 351.422 178.5C351.422 82.9802 274.02 5.57812 178.5 5.57812ZM263.433 124.046L235.051 257.787C232.954 267.27 227.309 269.568 219.432 265.106L176.202 233.244L155.351 253.325C153.053 255.623 151.1 257.575 146.638 257.575L149.706 213.575L229.819 141.193C233.311 138.126 229.049 136.385 224.441 139.453L125.43 201.783L82.7571 188.463C73.4862 185.54 73.2742 179.192 84.7094 174.729L251.428 110.436C259.171 107.647 265.932 112.321 263.421 124.035L263.433 124.046Z" fill="white"/>
</svg>
